<svg width="40" height="40" viewBox="0 0 40 40" fill="none" xmlns="http://www.w3.org/2000/svg">
<path fill-rule="evenodd" clip-rule="evenodd" d="M20 40C31.0457 40 40 31.0457 40 20C40 8.9543 31.0457 0 20 0C8.9543 0 0 8.9543 0 20C0 31.0457 8.9543 40 20 40ZM21 11.5146C21 10.9624 20.5523 10.5146 20 10.5146C19.4477 10.5146 19 10.9624 19 11.5146V18.9999L11.5147 18.9999C10.9624 18.9999 10.5147 19.4476 10.5147 19.9999C10.5147 20.5522 10.9624 20.9999 11.5147 20.9999H19V28.4852C19 29.0375 19.4477 29.4852 20 29.4852C20.5523 29.4852 21 29.0375 21 28.4852V20.9999L28.4853 20.9999C29.0376 20.9999 29.4853 20.5522 29.4853 19.9999C29.4853 19.4476 29.0376 18.9999 28.4853 18.9999H21V11.5146Z" fill="#FB8A3C"/>
</svg>
