<svg width="28" height="28" viewBox="0 0 28 28" fill="none" xmlns="http://www.w3.org/2000/svg">
<path fill-rule="evenodd" clip-rule="evenodd" d="M28 14C28 21.732 21.732 28 14 28C6.26801 28 0 21.732 0 14C0 6.26801 6.26801 0 14 0C21.732 0 28 6.26801 28 14ZM8.5 14C8.5 13.7239 8.72386 13.5 9 13.5H17.7929L14.6464 10.3536C14.4512 10.1583 14.4512 9.84171 14.6464 9.64645C14.8417 9.45118 15.1583 9.45118 15.3536 9.64645L19.3536 13.6464C19.5488 13.8417 19.5488 14.1583 19.3536 14.3536L15.3536 18.3536C15.1583 18.5488 14.8417 18.5488 14.6464 18.3536C14.4512 18.1583 14.4512 17.8417 14.6464 17.6464L17.7929 14.5H9C8.72386 14.5 8.5 14.2761 8.5 14Z" fill="white"/>
</svg>
