<svg width="28" height="28" viewBox="0 0 28 28" fill="none" xmlns="http://www.w3.org/2000/svg">
<path fill-rule="evenodd" clip-rule="evenodd" d="M28 14C28 21.732 21.732 28 14 28C6.26802 28 0 21.732 0 14C0 6.26801 6.26802 0 14 0C21.732 0 28 6.26801 28 14ZM8.96001 18.68C8.34801 18.68 7.88 18.212 7.88 17.6V10.4C7.88 9.788 8.34801 9.32 8.96001 9.32H19.04C19.652 9.32 20.12 9.788 20.12 10.4V17.6C20.12 18.212 19.652 18.68 19.04 18.68H8.96001ZM8.96001 10.04C8.744 10.04 8.60001 10.184 8.60001 10.4V15.0843L11.84 12.0563L15.7536 15.7487L17.6 14.2525L19.4 15.7252V10.4C19.4 10.184 19.256 10.04 19.04 10.04H8.96001ZM19.4 16.6552L17.6 15.1885L16.2961 16.2606L18.0973 17.96H19.04C19.256 17.96 19.4 17.816 19.4 17.6V16.6552ZM8.60001 17.6V16.0604L11.84 13.0643L17.0557 17.96H8.96001C8.744 17.96 8.60001 17.816 8.60001 17.6ZM14.36 12.2C14.36 12.992 15.008 13.64 15.8 13.64C16.592 13.64 17.24 12.992 17.24 12.2C17.24 11.408 16.592 10.76 15.8 10.76C15.008 10.76 14.36 11.408 14.36 12.2ZM15.08 12.2C15.08 11.804 15.404 11.48 15.8 11.48C16.196 11.48 16.52 11.804 16.52 12.2C16.52 12.596 16.196 12.92 15.8 12.92C15.404 12.92 15.08 12.596 15.08 12.2Z" fill="white"/>
</svg>
