<svg width="28" height="28" viewBox="0 0 28 28" fill="none" xmlns="http://www.w3.org/2000/svg">
<path fill-rule="evenodd" clip-rule="evenodd" d="M14 28C21.732 28 28 21.732 28 14C28 6.26801 21.732 0 14 0C6.26802 0 0 6.26801 0 14C0 21.732 6.26802 28 14 28ZM12.8009 13.0723C12.4652 13.2967 12.0705 13.4164 11.6667 13.4164C11.1252 13.4164 10.6059 13.2013 10.223 12.8184C9.8401 12.4356 9.625 11.9162 9.625 11.3748C9.625 10.971 9.74474 10.5762 9.96909 10.2405C10.1934 9.90472 10.5123 9.64304 10.8854 9.48851C11.2584 9.33398 11.6689 9.29355 12.065 9.37233C12.461 9.45111 12.8248 9.64555 13.1103 9.93109C13.3959 10.2166 13.5903 10.5804 13.6691 10.9765C13.7479 11.3725 13.7074 11.783 13.5529 12.1561C13.3984 12.5291 13.1367 12.848 12.8009 13.0723ZM12.1528 10.6472C12.0089 10.5511 11.8397 10.4998 11.6667 10.4998C11.4346 10.4998 11.212 10.5919 11.0479 10.756C10.8839 10.9201 10.7917 11.1427 10.7917 11.3748C10.7917 11.5478 10.843 11.717 10.9391 11.8609C11.0353 12.0048 11.1719 12.1169 11.3318 12.1832C11.4917 12.2494 11.6676 12.2667 11.8374 12.2329C12.0071 12.1992 12.163 12.1159 12.2854 11.9935C12.4078 11.8711 12.4911 11.7152 12.5249 11.5455C12.5586 11.3757 12.5413 11.1998 12.4751 11.0399C12.4088 10.88 12.2967 10.7434 12.1528 10.6472ZM15.199 15.5105C15.5348 15.2862 15.9295 15.1664 16.3333 15.1664C16.8748 15.1664 17.3941 15.3815 17.777 15.7644C18.1599 16.1473 18.375 16.6666 18.375 17.2081C18.375 17.6119 18.2553 18.0066 18.0309 18.3424C17.8066 18.6781 17.4877 18.9398 17.1146 19.0943C16.7416 19.2489 16.3311 19.2893 15.935 19.2105C15.539 19.1318 15.1752 18.9373 14.8897 18.6518C14.6041 18.3662 14.4097 18.0024 14.3309 17.6064C14.2521 17.2104 14.2926 16.7999 14.4471 16.4268C14.6016 16.0537 14.8633 15.7349 15.199 15.5105ZM15.8472 17.9356C15.9911 18.0318 16.1603 18.0831 16.3333 18.0831C16.5654 18.0831 16.788 17.9909 16.9521 17.8268C17.1161 17.6627 17.2083 17.4402 17.2083 17.2081C17.2083 17.035 17.157 16.8659 17.0609 16.722C16.9647 16.5781 16.8281 16.4659 16.6682 16.3997C16.5083 16.3335 16.3324 16.3161 16.1626 16.3499C15.9929 16.3837 15.837 16.467 15.7146 16.5894C15.5922 16.7118 15.5089 16.8677 15.4751 17.0374C15.4414 17.2071 15.4587 17.3831 15.5249 17.5429C15.5912 17.7028 15.7033 17.8395 15.8472 17.9356ZM18.3464 9.37193C18.4095 9.39809 18.4668 9.43644 18.515 9.48476C18.5633 9.53299 18.6017 9.59027 18.6278 9.65333C18.654 9.71639 18.6674 9.78399 18.6674 9.85226C18.6674 9.92053 18.654 9.98814 18.6278 10.0512C18.6017 10.1143 18.5633 10.1715 18.515 10.2198L10.22 18.5148C10.1474 18.5875 10.0548 18.6371 9.95399 18.6572C9.8532 18.6773 9.74867 18.667 9.65372 18.6277C9.55875 18.5883 9.47762 18.5216 9.42058 18.4361C9.36354 18.3506 9.33318 18.2501 9.33333 18.1473C9.33438 18.0097 9.38875 17.878 9.485 17.7798L17.78 9.48476C17.8282 9.43644 17.8855 9.39809 17.9486 9.37193C18.0116 9.34577 18.0792 9.33231 18.1475 9.33231C18.2158 9.33231 18.2834 9.34577 18.3464 9.37193Z" fill="white"/>
</svg>
