<svg width="78" height="78" viewBox="0 0 78 78" fill="none" xmlns="http://www.w3.org/2000/svg">
<circle cx="39" cy="39" r="39" fill="#008BDC"/>
<path d="M27.3333 24.3333H40.6666V30.3333C40.6666 30.7015 40.9651 31 41.3333 31H47.3333V35.6667H48.6666V30.3334C48.6637 30.265 48.6499 30.1975 48.6259 30.1334C48.6206 30.1167 48.6219 30.0974 48.6152 30.0807C48.5803 29.9961 48.5284 29.9196 48.4626 29.856L41.8053 23.196C41.68 23.0709 41.5104 23.0005 41.3333 23H26.6667C26.2985 23 26 23.2985 26 23.6667V51.6667C26 52.0349 26.2985 52.3334 26.6667 52.3334H40V51H27.3333V24.3333ZM42 25.2767L46.3887 29.6667H42V25.2767Z" fill="white"/>
<path d="M49.3333 37.667C44.5469 37.667 40.6666 41.5472 40.6666 46.3337C40.6666 51.1202 44.5469 55.0003 49.3333 55.0003C54.1197 55.0003 58 51.1201 58 46.3336C57.9945 41.5494 54.1175 37.6725 49.3333 37.667Z" fill="white"/>
<path d="M48.8648 50.4299C49.117 50.6935 49.5353 50.7027 49.7989 50.4505C49.8059 50.4438 49.8128 50.4369 49.8195 50.4299L52.7222 47.5292C52.978 47.2644 52.9707 46.8423 52.7058 46.5865C52.4475 46.337 52.0378 46.337 51.7795 46.5865L50.0088 48.3552L50.0088 42.6952C50.0088 42.327 49.7103 42.0285 49.3422 42.0285C48.974 42.0285 48.6755 42.3271 48.6755 42.6953L48.6755 48.3553L46.9048 46.5846C46.6439 46.3243 46.2214 46.3247 45.9611 46.5856C45.7008 46.8465 45.7012 47.269 45.9621 47.5293L48.8648 50.4299Z" fill="#008BDC"/>
</svg>
