<svg width="44" height="44" viewBox="0 0 44 44" fill="none" xmlns="http://www.w3.org/2000/svg">
<circle cx="22" cy="22" r="22" fill="white"/>
<path fill-rule="evenodd" clip-rule="evenodd" d="M22 12C19.284 12 18.944 12.012 17.877 12.06C16.813 12.109 16.086 12.278 15.45 12.525C14.7825 12.7758 14.1778 13.1693 13.678 13.678C13.1694 14.1778 12.7759 14.7825 12.525 15.45C12.278 16.086 12.109 16.813 12.06 17.877C12.011 18.944 12 19.284 12 22C12 24.716 12.011 25.056 12.06 26.123C12.109 27.187 12.278 27.914 12.525 28.55C12.7759 29.2175 13.1694 29.8222 13.678 30.322C14.1778 30.8306 14.7825 31.2241 15.45 31.475C16.086 31.722 16.813 31.891 17.877 31.94C18.944 31.988 19.284 32 22 32C24.716 32 25.056 31.988 26.123 31.94C27.187 31.891 27.914 31.722 28.55 31.475C29.2175 31.2241 29.8222 30.8306 30.322 30.322C30.8306 29.8222 31.2241 29.2175 31.475 28.55C31.722 27.914 31.891 27.187 31.94 26.123C31.988 25.056 32 24.716 32 22C32 19.284 31.988 18.944 31.94 17.877C31.891 16.813 31.722 16.086 31.475 15.45C31.2241 14.7825 30.8306 14.1778 30.322 13.678C29.8222 13.1693 29.2175 12.7758 28.55 12.525C27.914 12.278 27.187 12.109 26.123 12.06C25.056 12.012 24.716 12 22 12ZM22 13.802C24.67 13.802 24.986 13.812 26.04 13.86C27.016 13.905 27.545 14.067 27.898 14.204C28.364 14.386 28.698 14.603 29.048 14.952C29.398 15.302 29.614 15.636 29.796 16.102C29.932 16.455 30.096 16.984 30.14 17.959C30.188 19.014 30.198 19.329 30.198 22C30.198 24.67 30.188 24.986 30.14 26.04C30.095 27.016 29.932 27.545 29.796 27.898C29.6357 28.3324 29.3801 28.7253 29.048 29.048C28.698 29.398 28.364 29.614 27.898 29.796C27.545 29.932 27.016 30.096 26.041 30.14C24.987 30.188 24.671 30.198 22 30.198C19.33 30.198 19.013 30.188 17.96 30.14C16.984 30.095 16.455 29.932 16.102 29.796C15.6676 29.6357 15.2746 29.3801 14.952 29.048C14.6199 28.7254 14.3643 28.3324 14.204 27.898C14.067 27.545 13.904 27.016 13.86 26.041C13.812 24.986 13.802 24.671 13.802 22C13.802 19.33 13.812 19.014 13.86 17.96C13.905 16.984 14.067 16.455 14.204 16.102C14.386 15.636 14.603 15.302 14.952 14.952C15.302 14.602 15.636 14.386 16.102 14.204C16.455 14.067 16.984 13.904 17.959 13.86C19.014 13.812 19.329 13.802 22 13.802ZM22 25.333C21.116 25.333 20.2683 24.9818 19.6432 24.3568C19.0182 23.7317 18.667 22.884 18.667 22C18.667 21.116 19.0182 20.2683 19.6432 19.6432C20.2683 19.0182 21.116 18.667 22 18.667C22.884 18.667 23.7317 19.0182 24.3568 19.6432C24.9818 20.2683 25.333 21.116 25.333 22C25.333 22.884 24.9818 23.7317 24.3568 24.3568C23.7317 24.9818 22.884 25.333 22 25.333ZM22 16.865C21.3257 16.865 20.6579 16.9978 20.0349 17.2559C19.4119 17.5139 18.8458 17.8922 18.369 18.369C17.8922 18.8458 17.5139 19.4119 17.2559 20.0349C16.9978 20.6579 16.865 21.3257 16.865 22C16.865 22.6743 16.9978 23.3421 17.2559 23.9651C17.5139 24.5881 17.8922 25.1542 18.369 25.631C18.8458 26.1078 19.4119 26.4861 20.0349 26.7441C20.6579 27.0022 21.3257 27.135 22 27.135C23.3619 27.135 24.668 26.594 25.631 25.631C26.594 24.668 27.135 23.3619 27.135 22C27.135 20.6381 26.594 19.332 25.631 18.369C24.668 17.406 23.3619 16.865 22 16.865ZM28.538 16.662C28.538 16.8196 28.507 16.9756 28.4467 17.1212C28.3863 17.2668 28.298 17.3991 28.1865 17.5105C28.0751 17.622 27.9428 17.7104 27.7972 17.7707C27.6516 17.831 27.4956 17.862 27.338 17.862C27.1804 17.862 27.0244 17.831 26.8788 17.7707C26.7332 17.7104 26.6009 17.622 26.4895 17.5105C26.378 17.3991 26.2897 17.2668 26.2293 17.1212C26.169 16.9756 26.138 16.8196 26.138 16.662C26.138 16.3437 26.2644 16.0385 26.4895 15.8135C26.7145 15.5884 27.0197 15.462 27.338 15.462C27.6563 15.462 27.9615 15.5884 28.1865 15.8135C28.4116 16.0385 28.538 16.3437 28.538 16.662Z" fill="#DF3E95"/>
</svg>
