<svg width="44" height="44" viewBox="0 0 44 44" fill="none" xmlns="http://www.w3.org/2000/svg">
<circle cx="22" cy="22" r="22" fill="white"/>
<path d="M27.038 24.1842C26.7623 24.0446 25.4196 23.3894 25.1687 23.2959C24.9177 23.2066 24.7356 23.1598 24.5527 23.4355C24.3739 23.7043 23.8473 24.3196 23.6864 24.4991C23.5256 24.6785 23.3674 24.6923 23.0959 24.5706C22.8202 24.431 21.9395 24.1443 20.8938 23.2066C20.0771 22.4799 19.5332 21.5848 19.3717 21.3091C19.2108 21.0368 19.3538 20.8828 19.4899 20.7467C19.6151 20.6216 19.7656 20.4318 19.9052 20.2668C20.0379 20.1018 20.0805 19.9911 20.1774 19.8124C20.2668 19.6192 20.2207 19.4686 20.1527 19.3325C20.0846 19.1964 19.5367 17.8468 19.3077 17.3092C19.0891 16.7757 18.8602 16.8438 18.6917 16.8438C18.5343 16.8293 18.3514 16.8293 18.1693 16.8293C17.9871 16.8293 17.6894 16.8974 17.4384 17.1586C17.1875 17.4343 16.4787 18.0929 16.4787 19.4253C16.4787 20.7611 17.4597 22.0536 17.5959 22.2468C17.7354 22.4256 19.5257 25.1756 22.2723 26.3574C22.9274 26.6331 23.4362 26.7981 23.8336 26.9342C24.4887 27.1418 25.0869 27.1129 25.5592 27.0449C26.0817 26.9589 27.1776 26.3821 27.4072 25.7379C27.6402 25.0896 27.6402 24.5527 27.5722 24.431C27.5041 24.3059 27.3254 24.2378 27.0497 24.1161L27.038 24.1842ZM22.0571 30.9375H22.0426C20.4167 30.9375 18.8093 30.4968 17.4054 29.6732L17.0761 29.4766L13.6386 30.3717L14.5626 27.027L14.3406 26.6833C13.4327 25.2397 12.9511 23.5691 12.9511 21.8639C12.9511 16.8726 17.0369 12.8012 22.0639 12.8012C24.4991 12.8012 26.7836 13.75 28.5024 15.4688C29.3503 16.3065 30.0228 17.3048 30.4808 18.4052C30.9388 19.5057 31.173 20.6864 31.1699 21.8783C31.163 26.8661 27.0806 30.9375 22.0605 30.9375H22.0571ZM29.8093 14.1618C27.7179 12.1419 24.9679 11 22.0426 11C16.0091 11 11.0963 15.8916 11.0928 21.9031C11.0928 23.8226 11.594 25.6953 12.5538 27.3529L11 33L16.808 31.4854C18.417 32.3529 20.2154 32.8092 22.0433 32.8137H22.0468C28.0837 32.8137 32.9966 27.9221 33 21.9065C33 18.9956 31.8649 16.2559 29.7956 14.1969L29.8093 14.1618Z" fill="#22E14C"/>
</svg>
