<svg width="50" height="50" viewBox="0 0 50 50" fill="none" xmlns="http://www.w3.org/2000/svg">
<circle cx="25" cy="25" r="25" fill="#C62689"/>
<path d="M24.9988 19.6074C23.5681 19.6074 22.1959 20.1758 21.1842 21.1875C20.1725 22.1992 19.6042 23.5713 19.6042 25.0021C19.6042 26.4328 20.1725 27.805 21.1842 28.8167C22.1959 29.8284 23.5681 30.3968 24.9988 30.3968C26.4296 30.3968 27.8017 29.8284 28.8134 28.8167C29.8251 27.805 30.3935 26.4328 30.3935 25.0021C30.3935 23.5713 29.8251 22.1992 28.8134 21.1875C27.8017 20.1758 26.4296 19.6074 24.9988 19.6074ZM24.9988 28.5056C24.0693 28.5056 23.1779 28.1363 22.5207 27.4791C21.8634 26.8218 21.4942 25.9304 21.4942 25.0009C21.4942 24.0714 21.8634 23.18 22.5207 22.5227C23.1779 21.8655 24.0693 21.4963 24.9988 21.4963C25.9283 21.4963 26.8198 21.8655 27.477 22.5227C28.1343 23.18 28.5035 24.0714 28.5035 25.0009C28.5035 25.9304 28.1343 26.8218 27.477 27.4791C26.8198 28.1363 25.9283 28.5056 24.9988 28.5056Z" fill="white"/>
<path d="M30.607 20.6657C31.3016 20.6657 31.8647 20.1026 31.8647 19.4081C31.8647 18.7135 31.3016 18.1504 30.607 18.1504C29.9124 18.1504 29.3493 18.7135 29.3493 19.4081C29.3493 20.1026 29.9124 20.6657 30.607 20.6657Z" fill="white"/>
<path d="M34.9552 18.1295C34.6851 17.4321 34.2724 16.7987 33.7434 16.2699C33.2144 15.7412 32.5809 15.3287 31.8833 15.0589C31.0671 14.7524 30.2047 14.5868 29.333 14.5689C28.2095 14.5199 27.8537 14.5059 25.0047 14.5059C22.1557 14.5059 21.7905 14.5059 20.6763 14.5689C19.8053 14.5858 18.9436 14.7516 18.1283 15.0589C17.4306 15.3284 16.7969 15.7407 16.2679 16.2695C15.7389 16.7983 15.3263 17.4319 15.0565 18.1295C14.75 18.9457 14.5847 19.8082 14.5677 20.6799C14.5175 21.8022 14.5023 22.158 14.5023 25.0082C14.5023 27.8572 14.5023 28.22 14.5677 29.3365C14.5852 30.2092 14.7497 31.0702 15.0565 31.888C15.327 32.5854 15.74 33.2187 16.2692 33.7474C16.7983 34.2762 17.4319 34.6887 18.1295 34.9587C18.9432 35.2774 19.8053 35.455 20.6787 35.4837C21.8022 35.5327 22.158 35.5479 25.007 35.5479C27.856 35.5479 28.2212 35.5479 29.3353 35.4837C30.207 35.466 31.0693 35.3007 31.8857 34.9949C32.583 34.7244 33.2164 34.3116 33.7453 33.7827C34.2742 33.2538 34.6871 32.6204 34.9575 31.923C35.2643 31.1064 35.4288 30.2454 35.4463 29.3727C35.4965 28.2504 35.5117 27.8945 35.5117 25.0444C35.5117 22.1942 35.5117 21.8325 35.4463 20.716C35.4328 19.832 35.2666 18.957 34.9552 18.1295ZM33.5342 29.2502C33.5266 29.9225 33.4039 30.5886 33.1713 31.2195C32.9961 31.6732 32.7279 32.0852 32.3839 32.429C32.0399 32.7728 31.6278 33.0408 31.174 33.2157C30.5501 33.4472 29.8911 33.5699 29.2257 33.5785C28.1173 33.6299 27.8047 33.6427 24.9627 33.6427C22.1183 33.6427 21.8278 33.6427 20.6985 33.5785C20.0334 33.5704 19.3747 33.4476 18.7513 33.2157C18.296 33.0418 17.8822 32.7743 17.5367 32.4305C17.1912 32.0866 16.9218 31.6741 16.7458 31.2195C16.5165 30.5954 16.3939 29.9372 16.383 29.2724C16.3328 28.164 16.3212 27.8514 16.3212 25.0094C16.3212 22.1662 16.3212 21.8757 16.383 20.7452C16.3905 20.0732 16.5133 19.4075 16.7458 18.777C17.1017 17.8565 17.8308 17.132 18.7513 16.7797C19.375 16.5489 20.0335 16.4262 20.6985 16.4169C21.808 16.3667 22.1195 16.3527 24.9627 16.3527C27.8058 16.3527 28.0975 16.3527 29.2257 16.4169C29.8911 16.4249 30.5503 16.5476 31.174 16.7797C31.6278 16.955 32.0398 17.2233 32.3838 17.5672C32.7278 17.9112 32.996 18.3233 33.1713 18.777C33.4006 19.4011 33.5233 20.0594 33.5342 20.7242C33.5843 21.8337 33.5972 22.1452 33.5972 24.9884C33.5972 27.8304 33.5972 28.136 33.547 29.2514H33.5342V29.2502Z" fill="white"/>
</svg>
