<svg width="22" height="22" viewBox="0 0 22 22" fill="none" xmlns="http://www.w3.org/2000/svg">
<g clip-path="url(#clip0)">
<path d="M21.9999 11.0001C21.9999 17.0751 17.0751 21.9999 11.0001 21.9999C4.9248 21.9999 0 17.0751 0 11.0001C0 4.9248 4.9248 0 11.0001 0C17.0751 0 21.9999 4.9248 21.9999 11.0001Z" fill="#008BDC"/>
<path d="M9.24994 15.9999C8.83594 15.9999 8.49994 15.6639 8.49994 15.2499V6.75C8.49994 6.336 8.83594 6 9.24994 6H12.9999C14.6539 6 15.9999 7.34601 15.9999 9C15.9999 10.654 14.6539 12 12.9999 12H9.99994V15.2499C9.99994 15.6639 9.66394 15.9999 9.24994 15.9999ZM9.99994 10.5H12.9999C13.827 10.5 14.4999 9.82709 14.4999 9C14.4999 8.17291 13.827 7.5 12.9999 7.5H9.99994V10.5Z" fill="#FAFAFA"/>
<path d="M12.2499 14.5H6.75C6.336 14.5 6 14.164 6 13.75C6 13.336 6.336 13 6.75 13H12.2499C12.6639 13 12.9999 13.336 12.9999 13.75C12.9999 14.164 12.6639 14.5 12.2499 14.5Z" fill="#FAFAFA"/>
</g>
<defs>
<clipPath id="clip0">
<rect width="22" height="22" fill="white"/>
</clipPath>
</defs>
</svg>
