<svg width="51" height="72" viewBox="0 0 51 72" fill="none" xmlns="http://www.w3.org/2000/svg">
<g clip-path="url(#clip0)">
<path d="M46.1429 19.5254C45.4143 19.5254 44.9286 19.0373 44.9286 18.3051V1.22034C44.9286 0.488136 45.4143 0 46.1429 0C46.8714 0 47.3571 0.488136 47.3571 1.22034V18.3051C47.3571 19.0373 46.8714 19.5254 46.1429 19.5254Z" fill="#54A5FF"/>
<path d="M0 71.9998L3.27857 51.7422C3.88571 48.3252 5.82857 45.2744 8.62143 43.4438C8.62143 44.4201 8.74286 45.3964 8.98571 46.2506C10.6857 53.9388 17.4857 59.6744 25.6214 59.6744C33.7571 59.6744 40.5571 53.9388 42.2571 46.2506C42.5 45.2744 42.6214 44.4201 42.6214 43.4438C45.4143 45.2744 47.3571 48.2032 47.9643 51.7422L51 71.9998H0Z" fill="url(#paint0_linear)"/>
<path d="M40.0714 1.22021V12.2033L25.5 15.8643L10.9286 12.2033V1.22021H40.0714Z" fill="url(#paint1_linear)"/>
<path d="M38.8571 18.9154V23.1865C38.8571 24.0408 38.7357 24.895 38.6143 25.6272C37.7643 30.2645 34.6071 34.0476 30.3571 35.634C28.9 36.2442 27.2 36.6103 25.5 36.6103C23.8 36.6103 22.1 36.2442 20.6429 35.634C16.3929 33.9255 13.2357 30.1425 12.3857 25.6272C12.2643 24.895 12.1429 24.0408 12.1429 23.1865V18.9154L12.5071 18.6713C14.5714 17.695 15.7857 15.6204 15.7857 13.4238L25.5 15.8645L35.2143 13.4238C35.2143 14.5221 35.5786 15.6204 36.0643 16.5967C36.6714 17.573 37.4 18.3052 38.4929 18.7933L38.8571 18.9154Z" fill="url(#paint2_linear)"/>
<path d="M15.7857 13.424C15.7857 15.6206 14.5714 17.6951 12.5071 18.6714L10.9286 19.5256V12.2036L15.7857 13.424Z" fill="#EB7F58"/>
<path d="M12.3857 25.6272H10.9286C8.86428 25.6272 7.28571 24.0408 7.28571 21.9662C7.28571 20.9899 7.64999 20.0137 8.37856 19.4035C9.10713 18.7933 9.95713 18.3052 10.9286 18.3052V19.5255L12.1428 18.9153V23.1865C12.1428 24.0408 12.2643 24.895 12.3857 25.6272Z" fill="url(#paint3_linear)"/>
<path d="M43.7143 21.9662C43.7143 22.9425 43.35 23.9187 42.6214 24.5289C42.0143 25.2611 41.0429 25.6272 40.0714 25.6272H38.6143C38.7357 24.895 38.8571 24.0408 38.8571 23.1865V18.9153L40.0714 19.5255V18.3052C42.1357 18.3052 43.7143 19.8916 43.7143 21.9662Z" fill="url(#paint4_linear)"/>
<path d="M40.0714 12.2036V19.5256L38.4929 18.6714C36.4286 17.6951 35.2143 15.6206 35.2143 13.424L40.0714 12.2036Z" fill="#EB7F58"/>
<path d="M30.3571 35.6338V41.4914C30.3571 44.1762 28.1714 46.3728 25.5 46.3728C24.1643 46.3728 22.95 45.7626 22.1 44.9084C21.25 44.0541 20.6429 42.8338 20.6429 41.4914V35.6338C22.1 36.244 23.8 36.6101 25.5 36.6101C27.2 36.6101 28.9 36.244 30.3571 35.6338Z" fill="url(#paint5_linear)"/>
<path d="M42.5 41.4917V42.712C42.5 42.9561 42.5 43.2002 42.5 43.5663C42.5 44.5425 42.3786 45.5188 42.1357 46.3731C40.4357 54.0612 33.6357 59.7968 25.5 59.7968C17.3643 59.7968 10.5643 54.0612 8.86429 46.3731C8.62143 45.3968 8.5 44.5425 8.5 43.5663C8.5 43.3222 8.5 43.0781 8.5 42.712V41.4917H10.9286C10.9286 41.7358 10.9286 41.9798 11.05 42.2239C11.2929 43.6883 11.6571 45.0307 12.2643 46.3731C14.5714 51.3764 19.6714 54.9154 25.5 54.9154C31.3286 54.9154 36.4286 51.3764 38.7357 46.3731C39.3429 45.0307 39.7071 43.6883 39.95 42.2239C39.95 41.9798 39.95 41.7358 40.0714 41.4917H42.5Z" fill="#4795EA"/>
<path d="M40.0714 41.4917C40.0714 41.7358 40.0714 41.9798 39.95 42.2239C39.7071 43.6883 39.3428 45.0307 38.7357 46.3731C36.4286 51.3764 31.3286 54.9154 25.5 54.9154C19.6714 54.9154 14.5714 51.3764 12.2643 46.3731C11.6571 45.0307 11.2928 43.6883 11.05 42.2239C11.05 41.9798 11.05 41.7358 10.9286 41.4917H20.6428C20.6428 42.8341 21.25 44.0544 22.1 44.9086C22.95 45.7629 24.1643 46.3731 25.5 46.3731C28.1714 46.3731 30.3571 44.1764 30.3571 41.4917H40.0714Z" fill="#54A5FF"/>
<path d="M25.5 33.5595C24.0429 33.5595 22.7071 33.0713 21.6143 31.973C21.1286 31.4849 21.1286 30.7527 21.6143 30.2645C22.1 29.7764 22.8286 29.7764 23.3143 30.2645C24.5286 31.4849 26.4714 31.4849 27.6857 30.2645C28.1714 29.7764 28.9 29.7764 29.3857 30.2645C29.8714 30.7527 29.8714 31.4849 29.3857 31.973C28.2929 33.0713 26.9571 33.5595 25.5 33.5595Z" fill="#B4CDE1"/>
<path d="M20.6429 35.6337V36.61H6.07144C8.74287 36.61 10.9286 34.4134 10.9286 31.7286V25.627H12.3857C13.2357 30.2642 16.3929 34.0473 20.6429 35.6337Z" fill="#EB7F58"/>
<path d="M44.9286 36.61H30.3571V35.6337C34.6071 33.9253 37.7643 30.1422 38.6143 25.627H40.0714V31.7286C40.0714 34.4134 42.2571 36.61 44.9286 36.61Z" fill="#EB7F58"/>
<path d="M48.5714 2.44068H2.42858C1.70001 2.44068 1.21429 1.95254 1.21429 1.22034C1.21429 0.488136 1.70001 0 2.42858 0H48.5714C49.3 0 49.7857 0.488136 49.7857 1.22034C49.7857 1.95254 49.3 2.44068 48.5714 2.44068Z" fill="#4795EA"/>
</g>
<defs>
<linearGradient id="paint0_linear" x1="25.5" y1="71.9998" x2="25.5" y2="43.5049" gradientUnits="userSpaceOnUse">
<stop stop-color="#54A5FF"/>
<stop offset="1" stop-color="#8AD3FE"/>
</linearGradient>
<linearGradient id="paint1_linear" x1="25.5" y1="15.8643" x2="25.5" y2="1.22021" gradientUnits="userSpaceOnUse">
<stop stop-color="#54A5FF"/>
<stop offset="1" stop-color="#8AD3FE"/>
</linearGradient>
<linearGradient id="paint2_linear" x1="25.5" y1="36.6103" x2="25.5" y2="13.4238" gradientUnits="userSpaceOnUse">
<stop stop-color="#D3E6F5"/>
<stop offset="1" stop-color="#F0F7FC"/>
</linearGradient>
<linearGradient id="paint3_linear" x1="9.82356" y1="25.6272" x2="9.82356" y2="18.3052" gradientUnits="userSpaceOnUse">
<stop stop-color="#D3E6F5"/>
<stop offset="1" stop-color="#F0F7FC"/>
</linearGradient>
<linearGradient id="paint4_linear" x1="41.1764" y1="25.6272" x2="41.1764" y2="18.3052" gradientUnits="userSpaceOnUse">
<stop stop-color="#D3E6F5"/>
<stop offset="1" stop-color="#F0F7FC"/>
</linearGradient>
<linearGradient id="paint5_linear" x1="25.5" y1="46.3728" x2="25.5" y2="35.6948" gradientUnits="userSpaceOnUse">
<stop stop-color="#D3E6F5"/>
<stop offset="1" stop-color="#F0F7FC"/>
</linearGradient>
<clipPath id="clip0">
<rect width="51" height="72" fill="white"/>
</clipPath>
</defs>
</svg>
