<svg width="72" height="72" viewBox="0 0 72 72" fill="none" xmlns="http://www.w3.org/2000/svg">
<path d="M15.84 5.75977H14.4H5.76C2.592 5.75977 0 8.35177 0 11.5198V66.2398C0 69.4078 2.592 71.9998 5.76 71.9998H66.24C69.408 71.9998 72 69.4078 72 66.2398V11.5198C72 8.35177 69.408 5.75977 66.24 5.75977H57.6H56.16" fill="url(#paint0_linear)"/>
<path d="M36 57.5998C21.744 57.5998 10.08 45.9358 10.08 31.6798V5.75977H61.92V31.6798C61.92 45.9358 50.256 57.5998 36 57.5998Z" fill="#4795EA"/>
<path d="M57.6 5.75977V31.6798C57.6 32.1118 57.6 32.6878 57.6 33.1198C57.456 34.9918 57.168 36.8638 56.448 38.5918C56.16 39.4558 55.728 40.3198 55.296 41.1838C54.432 42.9118 53.424 44.4958 52.128 45.7918C51.552 46.5118 50.832 47.2318 50.112 47.8078C48.672 48.9598 47.088 50.1118 45.504 50.8318C44.784 51.2638 43.92 51.5518 43.2 51.8398C43.056 51.8398 43.056 51.8398 42.912 51.9838C41.184 52.5598 39.312 52.9918 37.44 53.1358C37.008 53.1358 36.432 53.1358 36 53.1358C35.568 53.1358 34.992 53.1358 34.56 53.1358C32.688 52.9918 30.816 52.7038 29.088 51.9838C28.944 51.9838 28.944 51.9838 28.8 51.8398C27.936 51.5518 27.216 51.2638 26.496 50.8318C24.768 49.9678 23.184 48.9598 21.888 47.8078C21.168 47.2318 20.448 46.5118 19.872 45.7918C18.576 44.3518 17.568 42.7678 16.704 41.1838C16.272 40.3198 15.84 39.4558 15.552 38.5918C14.976 36.8638 14.544 34.9918 14.4 33.1198C14.4 32.6878 14.4 32.1118 14.4 31.6798V5.75977H57.6Z" fill="url(#paint1_linear)"/>
<path d="M40.464 24.0482L38.88 20.1602V18.7202H33.12V20.1602L31.536 24.0482C29.808 28.2242 28.8 32.5442 28.8 37.0082V51.9842C31.104 52.8482 33.408 53.2802 36 53.2802C38.592 53.2802 40.896 52.8482 43.2 51.9842V37.0082C43.2 32.5442 42.336 28.0802 40.464 24.0482Z" fill="url(#paint2_linear)"/>
<path d="M42.624 13.9681L39.888 18.5761C39.312 19.5841 38.304 20.1601 37.152 20.1601H35.136C33.984 20.1601 32.976 19.5841 32.256 18.5761L29.52 13.9681L31.68 8.64014C31.824 8.64014 31.968 8.64014 32.112 8.64014H40.032C40.176 8.64014 40.32 8.64014 40.464 8.64014L42.624 13.9681Z" fill="#EB7F58"/>
<path d="M31.68 8.64L29.376 13.824L27.936 17.136C27.504 18 26.64 18.72 25.632 18.72C24.912 18.72 24.048 18.288 23.616 17.712L16.704 8.352C16.128 7.632 15.84 6.624 15.84 5.76C15.84 4.896 16.128 4.032 16.56 3.312L18.72 0L31.68 8.64Z" fill="url(#paint3_linear)"/>
<path d="M56.16 5.76C56.16 6.768 55.872 7.632 55.296 8.496L48.384 17.856C47.952 18.432 47.232 18.864 46.368 18.864C45.36 18.864 44.496 18.288 44.064 17.28L42.624 14.112L40.32 8.64L53.28 0L55.44 3.168C55.872 3.888 56.16 4.752 56.16 5.76Z" fill="url(#paint4_linear)"/>
<path d="M40.32 8.64C40.176 8.64 40.032 8.64 39.888 8.64H31.968C31.824 8.64 31.68 8.64 31.536 8.64L18.576 0H53.136L40.32 8.64Z" fill="#B4CDE1"/>
<path d="M63.36 31.6802C63.36 32.4002 62.64 33.1202 61.92 33.1202H57.6C57.6 32.6882 57.6 32.1122 57.6 31.6802V30.2402H61.92C62.64 30.2402 63.36 30.9602 63.36 31.6802Z" fill="#0668CB"/>
<path d="M14.4 33.1202H10.08C9.21601 33.1202 8.64001 32.4002 8.64001 31.6802C8.64001 30.9602 9.21601 30.2402 10.08 30.2402H14.4V31.6802C14.4 32.1122 14.4 32.6882 14.4 33.1202Z" fill="#0668CB"/>
<path d="M63.36 21.6002C63.36 22.4642 62.64 23.0402 61.92 23.0402H57.6V20.1602H61.92C62.64 20.1602 63.36 20.7362 63.36 21.6002Z" fill="#0668CB"/>
<path d="M14.4 20.1602V23.0402H10.08C9.21601 23.0402 8.64001 22.4642 8.64001 21.6002C8.64001 20.7362 9.21601 20.1602 10.08 20.1602H14.4Z" fill="#0668CB"/>
<path d="M63.36 12.96C63.36 13.824 62.64 14.4 61.92 14.4H57.6V11.52H61.92C62.64 11.52 63.36 12.096 63.36 12.96Z" fill="#0668CB"/>
<path d="M14.4 11.52V14.4H10.08C9.21601 14.4 8.64001 13.824 8.64001 12.96C8.64001 12.096 9.21601 11.52 10.08 11.52H14.4Z" fill="#0668CB"/>
<path d="M37.44 53.2798V57.5998C37.44 58.3198 36.72 59.0398 36 59.0398C35.28 59.0398 34.56 58.3198 34.56 57.5998V53.2798C34.992 53.2798 35.568 53.2798 36 53.2798C36.432 53.2798 37.008 53.2798 37.44 53.2798Z" fill="#0668CB"/>
<path d="M55.296 50.976C55.008 51.264 54.576 51.408 54.288 51.408C53.856 51.408 53.568 51.264 53.28 50.976L50.256 47.952C50.976 47.376 51.696 46.656 52.272 45.936L55.296 48.96C55.872 49.536 55.872 50.4 55.296 50.976Z" fill="#0668CB"/>
<path d="M21.744 47.952L18.72 50.976C18.432 51.264 18.144 51.408 17.712 51.408C17.424 51.408 16.992 51.264 16.704 50.976C16.128 50.4 16.128 49.536 16.704 48.96L19.728 45.936C20.448 46.656 21.024 47.232 21.744 47.952Z" fill="#0668CB"/>
<path d="M46.512 56.8801C46.368 57.0241 46.224 57.0241 45.936 57.0241C45.36 57.0241 44.784 56.7361 44.64 56.1601L43.056 52.1281C43.2 52.1281 43.2 52.1281 43.344 51.9841C44.208 51.6961 44.928 51.4081 45.648 50.9761L47.376 55.0081C47.52 55.8721 47.232 56.5921 46.512 56.8801Z" fill="#0668CB"/>
<path d="M16.704 41.1838C16.56 41.1838 16.56 41.3278 16.704 41.1838L12.672 42.9118C12.528 43.0558 12.384 43.0558 12.096 43.0558C11.52 43.0558 10.944 42.7678 10.8 42.1918C10.512 41.4718 10.8 40.6078 11.52 40.3198L15.552 38.7358C15.84 39.4558 16.128 40.3198 16.704 41.1838Z" fill="#0668CB"/>
<path d="M29.088 52.1281L27.36 56.1601C27.072 56.7361 26.64 57.0241 26.064 57.0241C25.92 57.0241 25.632 57.0241 25.488 56.8801C24.768 56.5921 24.336 55.7281 24.768 55.0081L26.352 50.9761C27.072 51.4081 27.936 51.6961 28.656 51.9841C28.944 52.1281 28.944 52.1281 29.088 52.1281Z" fill="#0668CB"/>
<path d="M61.2 42.1918C60.912 42.7678 60.48 43.0558 59.904 43.0558C59.76 43.0558 59.472 43.0558 59.328 42.9118L55.296 41.3278C55.728 40.4638 56.016 39.5998 56.448 38.7358L60.48 40.3198C61.2 40.6078 61.632 41.4718 61.2 42.1918Z" fill="#0668CB"/>
<defs>
<linearGradient id="paint0_linear" x1="36" y1="71.9998" x2="36" y2="5.75977" gradientUnits="userSpaceOnUse">
<stop stop-color="#54A5FF"/>
<stop offset="1" stop-color="#8AD3FE"/>
</linearGradient>
<linearGradient id="paint1_linear" x1="36" y1="53.2798" x2="36" y2="5.75977" gradientUnits="userSpaceOnUse">
<stop stop-color="#D3E6F5"/>
<stop offset="1" stop-color="#F0F7FC"/>
</linearGradient>
<linearGradient id="paint2_linear" x1="36" y1="53.2802" x2="36" y2="18.7202" gradientUnits="userSpaceOnUse">
<stop stop-color="#FE9661"/>
<stop offset="1" stop-color="#FFB369"/>
</linearGradient>
<linearGradient id="paint3_linear" x1="23.76" y1="18.72" x2="23.76" y2="0" gradientUnits="userSpaceOnUse">
<stop stop-color="#D3E6F5"/>
<stop offset="1" stop-color="#F0F7FC"/>
</linearGradient>
<linearGradient id="paint4_linear" x1="48.24" y1="18.72" x2="48.24" y2="0" gradientUnits="userSpaceOnUse">
<stop stop-color="#D3E6F5"/>
<stop offset="1" stop-color="#F0F7FC"/>
</linearGradient>
</defs>
</svg>
