<svg width="72" height="72" viewBox="0 0 72 72" fill="none" xmlns="http://www.w3.org/2000/svg">
<path d="M69.12 48.96H2.88C1.296 48.96 0 47.664 0 46.08V2.88C0 1.296 1.296 0 2.88 0H69.12C70.704 0 72 1.296 72 2.88V46.08C72 47.664 70.704 48.96 69.12 48.96Z" fill="url(#paint0_linear)"/>
<path d="M67.68 43.1998V5.75982C67.68 4.89582 67.104 4.31982 66.24 4.31982H5.76001C4.89601 4.31982 4.32001 4.89582 4.32001 5.75982V43.1998C4.32001 44.0638 4.89601 44.6398 5.76001 44.6398H66.24C67.104 44.6398 67.68 44.0638 67.68 43.1998Z" fill="url(#paint1_linear)"/>
<path d="M59.04 50.4003C54.432 50.4003 50.688 46.6563 50.688 42.0483V38.7363C50.688 34.1283 54.432 30.3843 59.04 30.3843C63.648 30.3843 67.392 34.1283 67.392 38.7363V42.0483C67.392 46.6563 63.648 50.4003 59.04 50.4003Z" fill="url(#paint2_linear)"/>
<path d="M72 57.6V72H46.08V57.6C46.08 52.848 49.968 48.96 54.72 48.96H63.36C68.112 48.96 72 52.848 72 57.6Z" fill="url(#paint3_linear)"/>
<path d="M53.28 57.6002V72.0002H50.4V57.6002C50.4 56.8802 51.12 56.1602 51.84 56.1602C52.56 56.1602 53.28 56.8802 53.28 57.6002Z" fill="#4795EA"/>
<path d="M67.68 57.6002V72.0002H64.8V57.6002C64.8 56.8802 65.52 56.1602 66.24 56.1602C66.96 56.1602 67.68 56.8802 67.68 57.6002Z" fill="#4795EA"/>
<path d="M36 50.4003C31.392 50.4003 27.648 46.6563 27.648 42.0483V38.7363C27.648 34.1283 31.392 30.3843 36 30.3843C40.608 30.3843 44.352 34.1283 44.352 38.7363V42.0483C44.352 46.6563 40.608 50.4003 36 50.4003Z" fill="url(#paint4_linear)"/>
<path d="M48.96 57.6V72H23.04V57.6C23.04 52.848 26.928 48.96 31.68 48.96H40.32C45.072 48.96 48.96 52.848 48.96 57.6Z" fill="url(#paint5_linear)"/>
<path d="M30.24 57.6002V72.0002H27.36V57.6002C27.36 56.8802 28.08 56.1602 28.8 56.1602C29.52 56.1602 30.24 56.8802 30.24 57.6002Z" fill="#4795EA"/>
<path d="M44.64 57.6002V72.0002H41.76V57.6002C41.76 56.8802 42.48 56.1602 43.2 56.1602C43.92 56.1602 44.64 56.8802 44.64 57.6002Z" fill="#4795EA"/>
<path d="M12.96 50.4002C8.352 50.4002 4.608 46.6562 4.608 42.0482V38.7362C4.608 33.9842 8.352 30.2402 12.96 30.2402C17.568 30.2402 21.312 33.9842 21.312 38.5922V41.9042C21.312 46.6562 17.568 50.4002 12.96 50.4002Z" fill="url(#paint6_linear)"/>
<path d="M25.92 57.6V72H0V57.6C0 52.848 3.888 48.96 8.64 48.96H17.28C22.032 48.96 25.92 52.848 25.92 57.6Z" fill="url(#paint7_linear)"/>
<path d="M7.20001 57.6002V72.0002H4.32001V57.6002C4.32001 56.8802 5.04001 56.1602 5.76001 56.1602C6.48001 56.1602 7.20001 56.8802 7.20001 57.6002Z" fill="#4795EA"/>
<path d="M21.6 57.6002V72.0002H18.72V57.6002C18.72 56.8802 19.296 56.1602 20.16 56.1602C21.024 56.1602 21.6 56.8802 21.6 57.6002Z" fill="#4795EA"/>
<defs>
<linearGradient id="paint0_linear" x1="0" y1="24.48" x2="72" y2="24.48" gradientUnits="userSpaceOnUse">
<stop stop-color="#FE9661"/>
<stop offset="1" stop-color="#FFB369"/>
</linearGradient>
<linearGradient id="paint1_linear" x1="36" y1="44.6398" x2="36" y2="4.31982" gradientUnits="userSpaceOnUse">
<stop stop-color="#D3E6F5"/>
<stop offset="1" stop-color="#F0F7FC"/>
</linearGradient>
<linearGradient id="paint2_linear" x1="59.04" y1="50.4003" x2="59.04" y2="30.2403" gradientUnits="userSpaceOnUse">
<stop stop-color="#54A5FF"/>
<stop offset="1" stop-color="#8AD3FE"/>
</linearGradient>
<linearGradient id="paint3_linear" x1="46.08" y1="60.48" x2="72" y2="60.48" gradientUnits="userSpaceOnUse">
<stop stop-color="#54A5FF"/>
<stop offset="1" stop-color="#8AD3FE"/>
</linearGradient>
<linearGradient id="paint4_linear" x1="36" y1="50.4003" x2="36" y2="30.2403" gradientUnits="userSpaceOnUse">
<stop stop-color="#54A5FF"/>
<stop offset="1" stop-color="#8AD3FE"/>
</linearGradient>
<linearGradient id="paint5_linear" x1="23.04" y1="60.48" x2="48.96" y2="60.48" gradientUnits="userSpaceOnUse">
<stop stop-color="#54A5FF"/>
<stop offset="1" stop-color="#8AD3FE"/>
</linearGradient>
<linearGradient id="paint6_linear" x1="12.96" y1="50.4002" x2="12.96" y2="30.2402" gradientUnits="userSpaceOnUse">
<stop stop-color="#54A5FF"/>
<stop offset="1" stop-color="#8AD3FE"/>
</linearGradient>
<linearGradient id="paint7_linear" x1="0" y1="60.48" x2="25.92" y2="60.48" gradientUnits="userSpaceOnUse">
<stop stop-color="#54A5FF"/>
<stop offset="1" stop-color="#8AD3FE"/>
</linearGradient>
</defs>
</svg>
