<svg width="79" height="72" viewBox="0 0 79 72" fill="none" xmlns="http://www.w3.org/2000/svg">
<g clip-path="url(#clip0)">
<path d="M65.8333 11.755C64.9555 11.755 64.3704 11.1672 64.3704 10.2856V2.93863C64.3704 2.05699 64.9555 1.46924 65.8333 1.46924C66.7111 1.46924 67.2963 2.05699 67.2963 2.93863V10.2856C67.2963 11.1672 66.7111 11.755 65.8333 11.755Z" fill="#EB7F58"/>
<path d="M70.2222 11.7551C69.3445 11.7551 68.7593 11.1674 68.7593 10.2858V5.87759C68.7593 4.99596 69.3445 4.4082 70.2222 4.4082C71.1 4.4082 71.6852 4.99596 71.6852 5.87759V10.2858C71.6852 11.1674 71.1 11.7551 70.2222 11.7551Z" fill="#EB7F58"/>
<path d="M74.6111 72.0001C73.7333 72.0001 73.1481 71.4123 73.1481 70.5307V63.1837C73.1481 62.3021 73.7333 61.7144 74.6111 61.7144C75.4889 61.7144 76.0741 62.3021 76.0741 63.1837V70.5307C76.0741 71.4123 75.4889 72.0001 74.6111 72.0001Z" fill="#4795EA"/>
<path d="M4.3889 72.0001C3.51112 72.0001 2.92593 71.4123 2.92593 70.5307V63.1837C2.92593 62.3021 3.51112 61.7144 4.3889 61.7144C5.26667 61.7144 5.85186 62.3021 5.85186 63.1837V70.5307C5.85186 71.4123 5.26667 72.0001 4.3889 72.0001Z" fill="#4795EA"/>
<path d="M76.0741 29.388H2.92593C1.31667 29.388 0 28.0655 0 26.4492V24.9798C0 23.3635 1.31667 22.041 2.92593 22.041H76.0741C77.6833 22.041 79 23.3635 79 24.9798V26.4492C79 28.0655 77.6833 29.388 76.0741 29.388Z" fill="#4795EA"/>
<path d="M76.0741 29.3877H2.92593V63.1836H76.0741V29.3877Z" fill="url(#paint0_linear)"/>
<path d="M64.3704 55.8369H14.6296C14.6296 53.3389 12.7278 51.4287 10.2408 51.4287V41.143C12.7278 41.143 14.6296 39.2328 14.6296 36.7349H64.3704C64.3704 39.2328 66.2722 41.143 68.7593 41.143V51.4287C66.2722 51.4287 64.3704 53.3389 64.3704 55.8369Z" fill="#4795EA"/>
<path d="M20.4815 22.0406H4.3889C3.51112 22.0406 2.92593 21.4529 2.92593 20.5712V17.6325C2.92593 16.7508 3.51112 16.1631 4.3889 16.1631H20.4815C21.3593 16.1631 21.9445 16.7508 21.9445 17.6325V20.5712C21.9445 21.4529 21.3593 22.0406 20.4815 22.0406Z" fill="#FFB369"/>
<path d="M17.5556 16.1632H1.46296C0.585185 16.1632 0 15.5754 0 14.6938V11.755C0 10.8734 0.585185 10.2856 1.46296 10.2856H17.5556C18.4333 10.2856 19.0185 10.8734 19.0185 11.755V14.6938C19.0185 15.5754 18.4333 16.1632 17.5556 16.1632Z" fill="#FE9661"/>
<path d="M52.6667 22.0408H26.3333L27.5037 5.43673C27.65 2.35102 30.2833 0 33.3556 0H45.7908C48.863 0 51.4963 2.35102 51.6426 5.43673L52.6667 22.0408Z" fill="url(#paint1_linear)"/>
<path d="M73.1482 10.2856H62.9074V22.0407H73.1482V10.2856Z" fill="url(#paint2_linear)"/>
</g>
<defs>
<linearGradient id="paint0_linear" x1="39.5" y1="63.1836" x2="39.5" y2="29.3877" gradientUnits="userSpaceOnUse">
<stop stop-color="#54A5FF"/>
<stop offset="1" stop-color="#8AD3FE"/>
</linearGradient>
<linearGradient id="paint1_linear" x1="39.5" y1="22.0408" x2="39.5" y2="0" gradientUnits="userSpaceOnUse">
<stop stop-color="#FE9661"/>
<stop offset="1" stop-color="#FFB369"/>
</linearGradient>
<linearGradient id="paint2_linear" x1="68.0278" y1="22.0407" x2="68.0278" y2="10.2856" gradientUnits="userSpaceOnUse">
<stop stop-color="#FE9661"/>
<stop offset="1" stop-color="#FFB369"/>
</linearGradient>
<clipPath id="clip0">
<rect width="79" height="72" fill="white"/>
</clipPath>
</defs>
</svg>
