<svg width="65" height="74" viewBox="0 0 65 74" fill="none" xmlns="http://www.w3.org/2000/svg">
<g clip-path="url(#clip0)">
<path d="M44.5188 29.97C43.6604 29.4767 42.8019 28.86 41.9434 28.3667C41.8207 26.1467 41.5754 23.9267 41.2075 21.83C41.2075 21.3367 41.0849 20.8433 40.9622 20.35C40.9622 19.98 40.8396 19.7333 40.8396 19.3633C38.7547 7.64667 35.1981 2.46667 32.5 2.46667C29.8019 2.46667 26.2453 7.64667 24.1604 19.24C23.4245 18.87 22.566 18.6233 21.8302 18.3767C24.0377 6.78333 27.9622 0 32.5 0C37.0377 0 41.0849 6.78333 43.1698 18.3767C43.2924 18.87 43.2924 19.3633 43.4151 19.8567C43.4151 20.2267 43.5377 20.4733 43.5377 20.8433C44.0283 23.8033 44.3962 26.8867 44.5188 29.97Z" fill="#D7E9F7"/>
<path d="M24.8962 62.8998C24.283 63.1465 23.5472 62.7765 23.4245 62.0365C22.8113 60.0631 22.3207 57.8431 21.8302 55.4998C21.7075 55.0065 21.7075 54.5131 21.5849 54.0198C21.5849 53.6498 21.4623 53.4031 21.4623 53.0331C20.9717 50.0731 20.7264 47.1131 20.4811 43.9065C20.4811 43.6598 20.4811 43.5365 20.4811 43.2898C20.4811 42.4265 20.3585 41.6865 20.3585 40.8231C20.3585 39.4665 20.2358 38.2331 20.2358 36.8765C20.2358 35.5198 20.2358 34.2865 20.3585 32.9298C20.9717 32.4365 21.7075 32.0665 22.3207 31.5731C22.4434 31.4498 22.6887 31.3265 22.8113 31.2031C22.6887 33.0531 22.6887 35.0265 22.6887 36.8765C22.6887 38.7265 22.6887 40.5765 22.8113 42.4265C22.8113 42.6731 22.8113 42.9198 22.8113 43.0431C22.8113 43.9065 22.934 44.6465 22.934 45.5098C23.0566 47.7298 23.3019 49.9498 23.6698 52.0465C23.7924 52.5398 23.7924 53.0331 23.9151 53.5265C24.0377 53.8965 24.0377 54.1431 24.0377 54.5131C24.5283 56.9798 25.0189 59.1998 25.6321 61.1731C26 62.0365 25.6321 62.7765 24.8962 62.8998Z" fill="#D7E9F7"/>
<path d="M24.1604 19.2398C24.0377 19.6098 24.0377 19.8565 24.0377 20.2265C23.9151 20.7198 23.9151 21.2131 23.7925 21.7065C23.4245 23.8031 23.1793 26.0231 23.0566 28.2431C22.934 28.9831 22.934 29.8465 22.934 30.7098C22.934 30.9565 22.934 31.0798 22.934 31.3265C22.6887 31.4498 22.566 31.5731 22.4434 31.6965C21.7076 32.1898 21.0943 32.5598 20.4811 33.0531C20.4811 32.1898 20.6038 31.4498 20.6038 30.5865C20.6038 30.3398 20.6038 30.2165 20.6038 29.9698C20.7264 26.7631 21.0943 23.8031 21.5849 20.8431C21.5849 20.4731 21.7076 20.2265 21.7076 19.8565C21.8302 19.3631 21.8302 18.8698 21.9528 18.3765C22.566 18.6231 23.4245 18.9931 24.1604 19.2398Z" fill="#D7E9F7"/>
<path d="M44.7642 37C44.7642 38.3567 44.7642 39.59 44.6415 40.9467C44.6415 41.81 44.6415 42.55 44.5189 43.4134C44.5189 43.66 44.5189 43.7834 44.5189 44.03C44.2736 47.2367 44.0283 50.1967 43.5377 53.1567C43.5377 53.5267 43.4151 53.7734 43.4151 54.1434C43.2925 54.6367 43.2925 55.13 43.1698 55.6234C40.9623 67.2167 37.0377 74 32.5 74C30.5377 74 27.717 72.7667 25.1415 66.8467C24.8962 66.23 25.1415 65.49 25.7547 65.2434C26.3679 64.9967 27.1038 65.2434 27.3491 65.86C28.9434 69.4367 30.783 71.5334 32.5 71.5334C35.1981 71.5334 38.7547 66.3534 40.8396 54.76C40.8396 54.39 40.9623 54.1434 40.9623 53.7734C41.0849 53.28 41.0849 52.7867 41.2075 52.2934C41.5755 50.1967 41.8208 47.9767 41.9434 45.7567C41.9434 44.8934 42.066 44.1534 42.066 43.29C42.066 43.0434 42.066 42.92 42.066 42.6734C42.1887 40.8234 42.1887 38.85 42.1887 37C42.1887 35.15 42.1887 33.3 42.066 31.45C42.066 31.2034 42.066 30.9567 42.066 30.8334C42.066 30.0934 41.9434 29.23 41.9434 28.3667C42.8019 28.86 43.6604 29.4767 44.5189 29.97C44.5189 30.2167 44.5189 30.34 44.5189 30.5867C44.5189 31.45 44.6415 32.19 44.6415 33.0534C44.7642 34.41 44.7642 35.6434 44.7642 37Z" fill="#D7E9F7"/>
<path d="M59.1132 42.0562C57.6415 40.4529 55.8019 38.7262 53.8396 36.9996C53.2264 36.5062 52.6132 35.8896 51.8773 35.3962C51.2641 34.9029 50.7736 34.4096 50.1604 34.0396C48.4434 32.6829 46.4811 31.3262 44.5188 30.0929C43.6604 29.5996 42.8019 28.9829 41.9434 28.4896C40.8396 27.7496 39.7358 27.1329 38.6321 26.5162C37.5283 25.8996 36.3019 25.2829 35.1981 24.6662C34.3396 24.1729 33.3585 23.6796 32.5 23.3096C32.2547 23.4329 32.1321 23.4329 31.8868 23.5562C31.1509 23.9262 30.4151 24.2962 29.6792 24.6662C30.5377 25.1596 31.5188 25.5296 32.3773 26.0229C33.9717 26.8862 35.6887 27.7496 37.283 28.7362C38.8773 29.7229 40.4717 30.7096 42.066 31.6962C42.9245 32.1896 43.783 32.8062 44.6415 33.4229C46.4811 34.7796 48.3207 36.0129 49.9151 37.3696C50.6509 37.8629 51.2641 38.4796 51.8773 38.9729C53.8396 40.6996 55.6792 42.4262 57.1509 44.0296C61.4434 48.7162 63.283 52.6629 62.0566 54.6362C60.8302 56.6096 56.5377 56.9796 50.4056 55.6229C48.1981 55.1296 45.8679 54.3896 43.2924 53.5262C42.5566 53.2796 41.6981 52.9096 40.9622 52.6629C39 51.9229 37.0377 51.0596 34.9528 50.0729C34.0943 49.5796 33.1132 49.2096 32.2547 48.7162C32.132 48.8396 31.8868 48.9629 31.7641 48.9629C31.0283 49.3329 30.2924 49.7029 29.5566 50.0729C30.4151 50.5662 31.3962 51.0596 32.2547 51.4296C35.0754 52.9096 37.8962 54.1429 40.5943 55.1296C41.3302 55.4996 42.1887 55.7462 42.9245 55.9929C45.3773 56.8562 47.7075 57.4729 49.9151 58.0896C52.4905 58.7062 54.8207 58.9529 56.9056 58.9529C60.5849 58.9529 63.0377 57.9662 64.2641 55.8696C66.2264 52.4162 64.3868 47.7296 59.1132 42.0562Z" fill="#8AD3FE"/>
<path d="M27.5943 45.5097C29.1887 46.4964 30.9056 47.3597 32.5 48.2231C32.3773 48.3464 32.1321 48.4697 32.0094 48.4697C31.2736 48.8397 30.5377 49.2097 29.8019 49.5797C28.6981 48.9631 27.4717 48.3464 26.3679 47.7297C25.2641 47.1131 24.1604 46.3731 23.0566 45.7564C22.1981 45.2631 21.3396 44.6464 20.4811 44.1531C17.783 42.4264 15.3302 40.5764 13.1226 38.7264C12.5094 38.2331 11.7736 37.6164 11.1604 37.1231C9.1981 35.3964 7.48112 33.7931 5.88678 32.0664C0.735838 26.2697 -1.10378 21.5831 0.613196 18.4997C2.33018 15.4164 7.35848 14.6764 14.8396 16.4031C17.0472 16.8964 19.3773 17.6364 21.8302 18.3764C22.566 18.6231 23.4245 18.9931 24.1604 19.2397C26.8585 20.2264 29.6792 21.5831 32.5 22.9397C32.2547 23.0631 32.1321 23.0631 31.8868 23.1864C31.1509 23.5564 30.4151 23.9264 29.6792 24.2964C28.2075 23.5564 26.7358 22.9397 25.2641 22.3231C24.7736 22.0764 24.1604 21.8297 23.6698 21.7064C22.9339 21.3364 22.0755 21.0897 21.3396 20.8431C18.8868 19.9797 16.4339 19.2397 14.2264 18.7464C11.7736 18.2531 9.56602 17.8831 7.84904 17.8831C5.15093 17.8831 3.31131 18.4997 2.6981 19.7331C1.59433 21.7064 3.43395 25.6531 7.60376 30.3397C9.07546 32.0664 10.9151 33.6697 13 35.3964C13.6132 35.8897 14.2264 36.5064 14.9622 36.9997C16.6792 38.3564 18.3962 39.5897 20.2358 40.9464C21.0943 41.5631 21.9528 42.0564 22.8113 42.6731C24.4056 43.6597 26 44.6464 27.5943 45.5097Z" fill="#8AD3FE"/>
<path d="M43.4151 19.857C43.2924 19.3636 43.2924 18.8703 43.1698 18.377C44.8868 17.7603 46.6038 17.267 48.1981 16.7736C48.8113 16.6503 49.5472 17.0203 49.6698 17.637C49.7924 18.2536 49.4245 18.9936 48.8113 19.117C47.0943 19.6103 45.3773 20.1036 43.5377 20.8436C43.5377 20.597 43.5377 20.227 43.4151 19.857Z" fill="#FFB369"/>
<path d="M21.8302 55.6233C16.3113 57.5967 11.6509 58.5833 8.09433 58.5833C4.41508 58.5833 1.83961 57.5967 0.735834 55.5C-1.59436 51.5533 2.33017 44.6467 11.283 37C11.8962 37.4933 12.5094 38.11 13.2453 38.6033C4.1698 46.25 1.47168 51.9233 2.82074 54.2667C4.1698 56.61 10.4245 57.1033 21.4622 53.1567C21.4622 53.5267 21.5849 53.7733 21.5849 54.1433C21.7075 54.6367 21.7075 55.13 21.8302 55.6233Z" fill="#FFB369"/>
<path d="M41.2075 21.7066C39.2453 22.4466 37.283 23.3099 35.1981 24.2966C34.4622 24.6666 33.7264 25.0366 32.9905 25.4066C32.7453 25.5299 32.6226 25.5299 32.5 25.6533C30.9056 26.5166 29.1887 27.3799 27.5943 28.3666C26 29.2299 24.4056 30.2166 22.8113 31.3266C22.566 31.45 22.4434 31.5733 22.3207 31.6966C21.5849 32.19 20.9717 32.5599 20.3585 33.0533C18.5188 34.41 16.6792 35.6433 15.0849 37C14.349 36.5066 13.7358 35.89 13.1226 35.3966C15.3302 33.5466 17.9056 31.6966 20.4811 29.9699C20.6038 29.8466 20.849 29.7233 20.9717 29.5999C21.7075 29.1066 22.3207 28.7366 23.0566 28.2433C24.1604 27.5033 25.2641 26.8866 26.3679 26.2699C27.4717 25.6533 28.6981 25.0366 29.8019 24.4199C30.5377 24.0499 31.2736 23.6799 32.0094 23.3099C32.2547 23.1866 32.3773 23.0633 32.6226 23.0633C35.4434 21.5833 38.2641 20.3499 40.9622 19.3633C40.9622 19.7333 41.0849 19.9799 41.0849 20.3499C41.0849 20.7199 41.2075 21.2133 41.2075 21.7066Z" fill="#FFB369"/>
<path d="M53.8396 37.0002C53.4717 37.2468 53.1037 37.6168 52.7358 37.9868C52.4905 38.2335 52.2453 38.4802 52 38.6035C49.6698 40.4535 47.217 42.3035 44.6415 44.0302C44.5188 44.1535 44.2736 44.2768 44.1509 44.4002C43.4151 44.8935 42.8019 45.2635 42.066 45.7568C40.9622 46.4968 39.8585 47.1135 38.7547 47.7302C37.6509 48.3468 36.4245 48.9635 35.3207 49.5802C34.5849 49.9502 33.849 50.3201 33.1132 50.6901C32.8679 50.8135 32.7453 50.9368 32.5 50.9368C29.6792 52.4168 26.8585 53.6502 24.1603 54.6368C24.0377 54.2668 24.0377 54.0201 24.0377 53.6502C23.9151 53.1568 23.9151 52.6635 23.7924 52.1702C25.7547 51.4301 27.7169 50.5668 29.8019 49.5802C30.5377 49.2102 31.2736 48.8401 32.0094 48.4701C32.2547 48.3468 32.3773 48.2235 32.5 48.2235C34.0943 47.3601 35.8113 46.4968 37.4056 45.5102C39 44.6468 40.5943 43.6602 42.1886 42.5502C42.3113 42.4268 42.5566 42.3035 42.6792 42.1802C43.2924 41.6868 44.0283 41.3168 44.6415 40.8235C46.4811 39.5901 48.3207 38.2335 49.9151 36.8768C50.283 36.6302 50.7736 36.2602 51.1415 35.8902C51.3868 35.6435 51.632 35.3968 51.8773 35.2735C60.8302 27.6268 63.5283 21.9535 62.1792 19.6102C61.1981 18.0068 58.0094 17.3902 53.4717 18.1302C52.8585 18.2535 52.1226 17.7602 52.1226 17.1435C52 16.5268 52.4905 15.7868 53.1037 15.7868C58.8679 14.9235 62.7924 15.9102 64.2641 18.5002C66.7169 22.4468 62.7924 29.3535 53.8396 37.0002Z" fill="#FFB369"/>
<path d="M32.5 40.6998C34.532 40.6998 36.1792 39.0433 36.1792 36.9998C36.1792 34.9564 34.532 33.2998 32.5 33.2998C30.468 33.2998 28.8207 34.9564 28.8207 36.9998C28.8207 39.0433 30.468 40.6998 32.5 40.6998Z" fill="url(#paint0_linear)"/>
<path d="M50.8962 19.7331C52.2509 19.7331 53.3491 18.6288 53.3491 17.2665C53.3491 15.9042 52.2509 14.7998 50.8962 14.7998C49.5416 14.7998 48.4434 15.9042 48.4434 17.2665C48.4434 18.6288 49.5416 19.7331 50.8962 19.7331Z" fill="url(#paint1_linear)"/>
<path d="M25.1415 66.5998C26.4962 66.5998 27.5943 65.4955 27.5943 64.1332C27.5943 62.7709 26.4962 61.6665 25.1415 61.6665C23.7869 61.6665 22.6887 62.7709 22.6887 64.1332C22.6887 65.4955 23.7869 66.5998 25.1415 66.5998Z" fill="#B4CDE1"/>
</g>
<defs>
<linearGradient id="paint0_linear" x1="28.8508" y1="36.9998" x2="36.2093" y2="36.9998" gradientUnits="userSpaceOnUse">
<stop stop-color="#54A5FF"/>
<stop offset="1" stop-color="#8AD3FE"/>
</linearGradient>
<linearGradient id="paint1_linear" x1="48.4734" y1="17.2665" x2="53.3791" y2="17.2665" gradientUnits="userSpaceOnUse">
<stop stop-color="#FE9661"/>
<stop offset="1" stop-color="#FFB369"/>
</linearGradient>
<clipPath id="clip0">
<rect width="65" height="74" fill="white"/>
</clipPath>
</defs>
</svg>
