<svg width="57" height="80" viewBox="0 0 57 80" fill="none" xmlns="http://www.w3.org/2000/svg">
<g clip-path="url(#clip0)">
<path d="M51.5714 21.6949C50.7572 21.6949 50.2143 21.1525 50.2143 20.339V1.35593C50.2143 0.542373 50.7572 0 51.5714 0C52.3857 0 52.9286 0.542373 52.9286 1.35593V20.339C52.9286 21.1525 52.3857 21.6949 51.5714 21.6949Z" fill="#54A5FF"/>
<path d="M0 79.9998L3.66429 57.4913C4.34286 53.6947 6.51429 50.3049 9.63571 48.271C9.63571 49.3557 9.77143 50.4405 10.0429 51.3896C11.9429 59.932 19.5429 66.3049 28.6357 66.3049C37.7286 66.3049 45.3286 59.932 47.2286 51.3896C47.5 50.3049 47.6357 49.3557 47.6357 48.271C50.7571 50.3049 52.9286 53.5591 53.6071 57.4913L57 79.9998H0Z" fill="url(#paint0_linear)"/>
<path d="M44.7857 1.35596V13.5593L28.5 17.6271L12.2143 13.5593V1.35596H44.7857Z" fill="url(#paint1_linear)"/>
<path d="M43.4286 21.0167V25.7625C43.4286 26.7116 43.2929 27.6608 43.1572 28.4744C42.2072 33.6269 38.6786 37.8303 33.9286 39.593C32.3 40.271 30.4 40.6778 28.5 40.6778C26.6 40.6778 24.7 40.271 23.0714 39.593C18.3214 37.6947 14.7929 33.4913 13.8429 28.4744C13.7072 27.6608 13.5714 26.7116 13.5714 25.7625V21.0167L13.9786 20.7455C16.2857 19.6608 17.6429 17.3557 17.6429 14.915L28.5 17.6269L39.3572 14.915C39.3572 16.1354 39.7643 17.3557 40.3072 18.4405C40.9857 19.5252 41.8 20.3388 43.0214 20.8811L43.4286 21.0167Z" fill="url(#paint2_linear)"/>
<path d="M17.6429 14.915C17.6429 17.3557 16.2857 19.6608 13.9786 20.7455L12.2143 21.6947V13.5591L17.6429 14.915Z" fill="#EB7F58"/>
<path d="M13.8429 28.4745H12.2143C9.90714 28.4745 8.14285 26.7117 8.14285 24.4067C8.14285 23.3219 8.55 22.2372 9.36428 21.5592C10.1786 20.8812 11.1286 20.3389 12.2143 20.3389V21.6948L13.5714 21.0168V25.7626C13.5714 26.7117 13.7071 27.6609 13.8429 28.4745Z" fill="url(#paint3_linear)"/>
<path d="M48.8571 24.4067C48.8571 25.4914 48.45 26.5762 47.6357 27.2541C46.9571 28.0677 45.8714 28.4745 44.7857 28.4745H43.1571C43.2928 27.6609 43.4286 26.7117 43.4286 25.7626V21.0168L44.7857 21.6948V20.3389C47.0929 20.3389 48.8571 22.1016 48.8571 24.4067Z" fill="url(#paint4_linear)"/>
<path d="M44.7857 13.5591V21.6947L43.0214 20.7455C40.7143 19.6608 39.3571 17.3557 39.3571 14.915L44.7857 13.5591Z" fill="#EB7F58"/>
<path d="M33.9286 39.5933V46.1017C33.9286 49.0848 31.4857 51.5255 28.5 51.5255C27.0072 51.5255 25.65 50.8475 24.7 49.8983C23.75 48.9492 23.0714 47.5933 23.0714 46.1017V39.5933C24.7 40.2712 26.6 40.678 28.5 40.678C30.4 40.678 32.3 40.2712 33.9286 39.5933Z" fill="url(#paint5_linear)"/>
<path d="M47.5 46.1016V47.4575C47.5 47.7287 47.5 47.9999 47.5 48.4066C47.5 49.4914 47.3643 50.5761 47.0929 51.5253C45.1929 60.0677 37.5929 66.4405 28.5 66.4405C19.4071 66.4405 11.8071 60.0677 9.90714 51.5253C9.63571 50.4405 9.5 49.4914 9.5 48.4066C9.5 48.1355 9.5 47.8643 9.5 47.4575V46.1016H12.2143C12.2143 46.3727 12.2143 46.6439 12.35 46.9151C12.6214 48.5422 13.0286 50.0338 13.7071 51.5253C16.2857 57.0846 21.9857 61.0168 28.5 61.0168C35.0143 61.0168 40.7143 57.0846 43.2929 51.5253C43.9714 50.0338 44.3786 48.5422 44.65 46.9151C44.65 46.6439 44.65 46.3727 44.7857 46.1016H47.5Z" fill="#4795EA"/>
<path d="M44.7857 46.1016C44.7857 46.3727 44.7857 46.6439 44.65 46.9151C44.3786 48.5422 43.9714 50.0338 43.2929 51.5253C40.7143 57.0846 35.0143 61.0168 28.5 61.0168C21.9857 61.0168 16.2857 57.0846 13.7072 51.5253C13.0286 50.0338 12.6214 48.5422 12.35 46.9151C12.35 46.6439 12.35 46.3727 12.2143 46.1016H23.0714C23.0714 47.5931 23.75 48.949 24.7 49.8982C25.65 50.8473 27.0072 51.5253 28.5 51.5253C31.4857 51.5253 33.9286 49.0846 33.9286 46.1016H44.7857Z" fill="#54A5FF"/>
<path d="M28.5 37.288C26.8714 37.288 25.3786 36.7456 24.1571 35.5253C23.6143 34.9829 23.6143 34.1694 24.1571 33.627C24.7 33.0846 25.5143 33.0846 26.0571 33.627C27.4143 34.9829 29.5857 34.9829 30.9429 33.627C31.4857 33.0846 32.3 33.0846 32.8429 33.627C33.3857 34.1694 33.3857 34.9829 32.8429 35.5253C31.6214 36.7456 30.1286 37.288 28.5 37.288Z" fill="#B4CDE1"/>
<path d="M23.0714 39.5933V40.678H6.78571C9.77142 40.678 12.2143 38.2373 12.2143 35.2543V28.4746H13.8428C14.7928 33.6272 18.3214 37.8305 23.0714 39.5933Z" fill="#EB7F58"/>
<path d="M50.2143 40.678H33.9286V39.5933C38.6786 37.695 42.2071 33.4916 43.1571 28.4746H44.7857V35.2543C44.7857 38.2373 47.2286 40.678 50.2143 40.678Z" fill="#EB7F58"/>
<path d="M54.2857 2.71186H2.71429C1.9 2.71186 1.35715 2.16949 1.35715 1.35593C1.35715 0.542373 1.9 0 2.71429 0H54.2857C55.1 0 55.6429 0.542373 55.6429 1.35593C55.6429 2.16949 55.1 2.71186 54.2857 2.71186Z" fill="#4795EA"/>
</g>
<defs>
<linearGradient id="paint0_linear" x1="28.5" y1="79.9998" x2="28.5" y2="48.3388" gradientUnits="userSpaceOnUse">
<stop stop-color="#54A5FF"/>
<stop offset="1" stop-color="#8AD3FE"/>
</linearGradient>
<linearGradient id="paint1_linear" x1="28.5" y1="17.6271" x2="28.5" y2="1.35596" gradientUnits="userSpaceOnUse">
<stop stop-color="#54A5FF"/>
<stop offset="1" stop-color="#8AD3FE"/>
</linearGradient>
<linearGradient id="paint2_linear" x1="28.5" y1="40.6778" x2="28.5" y2="14.915" gradientUnits="userSpaceOnUse">
<stop stop-color="#D3E6F5"/>
<stop offset="1" stop-color="#F0F7FC"/>
</linearGradient>
<linearGradient id="paint3_linear" x1="10.9793" y1="28.4745" x2="10.9793" y2="20.3389" gradientUnits="userSpaceOnUse">
<stop stop-color="#D3E6F5"/>
<stop offset="1" stop-color="#F0F7FC"/>
</linearGradient>
<linearGradient id="paint4_linear" x1="46.0207" y1="28.4745" x2="46.0207" y2="20.3389" gradientUnits="userSpaceOnUse">
<stop stop-color="#D3E6F5"/>
<stop offset="1" stop-color="#F0F7FC"/>
</linearGradient>
<linearGradient id="paint5_linear" x1="28.5" y1="51.5255" x2="28.5" y2="39.6611" gradientUnits="userSpaceOnUse">
<stop stop-color="#D3E6F5"/>
<stop offset="1" stop-color="#F0F7FC"/>
</linearGradient>
<clipPath id="clip0">
<rect width="57" height="80" fill="white"/>
</clipPath>
</defs>
</svg>
