<svg width="70" height="70" viewBox="0 0 70 70" fill="none" xmlns="http://www.w3.org/2000/svg">
<path d="M70 8.4V9.8C70 10.64 69.44 11.2 68.6 11.2H53.2V8.82C53.2 4.06 57.12 0 61.88 0C64.12 0 66.08 0.98 67.62 2.52C69.02 3.92 70 6.02 70 8.4Z" fill="#9DB8D3"/>
<path d="M70 54.6002V55.5802C70 60.3402 66.08 64.4002 61.32 64.4002C59.08 64.4002 57.12 63.4202 55.58 61.8802C54.18 60.4802 53.2 58.3802 53.2 56.0002V53.2002H68.6C69.44 53.2002 70 53.7602 70 54.6002Z" fill="#9DB8D3"/>
<path d="M32.2 64.4H61.6C59.22 64.4 57.12 63.42 55.72 61.88C54.18 60.48 53.2 58.38 53.2 56V8.4C53.2 3.78 56.98 0 61.6 0H8.4C3.78 0 0 3.78 0 8.4V56C0 60.62 3.78 64.4 8.4 64.4H21" fill="url(#paint0_linear)"/>
<path d="M21 59.5V64.4V70L26.6 67.2L32.2 70V64.4V59.5H21Z" fill="url(#paint1_linear)"/>
<path d="M42 19.5998H11.2C10.36 19.5998 9.79999 19.0398 9.79999 18.1998V11.1998C9.79999 10.3598 10.36 9.7998 11.2 9.7998H42C42.84 9.7998 43.4 10.3598 43.4 11.1998V18.1998C43.4 19.0398 42.84 19.5998 42 19.5998Z" fill="url(#paint2_linear)"/>
<path d="M40.6 29.4001H12.6C11.76 29.4001 11.2 28.8401 11.2 28.0001C11.2 27.1601 11.76 26.6001 12.6 26.6001H40.6C41.44 26.6001 42 27.1601 42 28.0001C42 28.8401 41.44 29.4001 40.6 29.4001Z" fill="#B4CDE1"/>
<path d="M40.6 37.8H12.6C11.76 37.8 11.2 37.24 11.2 36.4C11.2 35.56 11.76 35 12.6 35H40.6C41.44 35 42 35.56 42 36.4C42 37.24 41.44 37.8 40.6 37.8Z" fill="#B4CDE1"/>
<path d="M26.6 61.5998C31.2392 61.5998 35 57.839 35 53.1998C35 48.5606 31.2392 44.7998 26.6 44.7998C21.9608 44.7998 18.2 48.5606 18.2 53.1998C18.2 57.839 21.9608 61.5998 26.6 61.5998Z" fill="#EB7F58"/>
<defs>
<linearGradient id="paint0_linear" x1="30.8" y1="64.4" x2="30.8" y2="0" gradientUnits="userSpaceOnUse">
<stop stop-color="#D3E6F5"/>
<stop offset="1" stop-color="#F0F7FC"/>
</linearGradient>
<linearGradient id="paint1_linear" x1="21" y1="64.722" x2="32.2" y2="64.722" gradientUnits="userSpaceOnUse">
<stop stop-color="#FE9661"/>
<stop offset="1" stop-color="#FFB369"/>
</linearGradient>
<linearGradient id="paint2_linear" x1="9.79999" y1="14.6998" x2="43.4" y2="14.6998" gradientUnits="userSpaceOnUse">
<stop stop-color="#54A5FF"/>
<stop offset="1" stop-color="#8AD3FE"/>
</linearGradient>
</defs>
</svg>
