<svg width="47" height="46" viewBox="0 0 47 46" fill="none" xmlns="http://www.w3.org/2000/svg">
<path d="M37.3797 9.2002L38.6959 10.5145L12.3719 36.801L11.0557 35.4867L37.3797 9.2002ZM38.6959 10.5145L12.3719 36.801L11.0557 35.4867L37.3797 9.2002L38.6959 10.5145Z" fill="#008BDC"/>
<path d="M15.9495 38.5534L40.259 14.2784C40.6312 13.9067 40.6312 13.3041 40.259 12.9324L34.9573 7.63829C34.5851 7.26661 33.9817 7.26661 33.6094 7.63829L9.30402 31.9092L15.9495 38.5534ZM13.8693 39.0774L8.77616 33.9852L7.6027 40.2482L13.8693 39.0774ZM36.2603 6.33722L41.5619 11.6313C42.6537 12.7216 42.6537 14.4892 41.5619 15.5795L16.884 40.2223C16.7526 40.3535 16.5846 40.442 16.4019 40.4761L6.61911 42.3038C5.98252 42.4228 5.42498 41.866 5.54408 41.2303L7.37441 31.4614C7.40858 31.2791 7.49717 31.1113 7.62855 30.9801L32.3065 6.33722C33.3983 5.24697 35.1685 5.24697 36.2603 6.33722Z" fill="#4A4747"/>
</svg>
