<svg width="90" height="40" viewBox="0 0 90 40" fill="none" xmlns="http://www.w3.org/2000/svg">
<path d="M73.7655 21C65.9486 21 59.441 26.6056 58.0432 34.0163C57.7361 35.6444 59.1087 37 60.7655 37H86.7655C88.4224 37 89.7949 35.6444 89.4878 34.0163C88.09 26.6056 81.5824 21 73.7655 21Z" fill="#008BDC"/>
<path d="M80.7655 10.5C80.7655 14.6421 77.4077 18 73.2655 18C69.1234 18 65.7655 14.6421 65.7655 10.5C65.7655 6.35786 69.1234 3 73.2655 3C77.4077 3 80.7655 6.35786 80.7655 10.5Z" fill="#008BDC"/>
<path d="M46.7655 19.5C38.2142 19.5 31.0982 25.632 29.5692 33.7382C29.0516 36.4823 31.3753 38.5 33.7655 38.5H59.7655C62.1558 38.5 64.4794 36.4823 63.9618 33.7382C62.4328 25.632 55.3169 19.5 46.7655 19.5ZM46.2655 19.5C51.2361 19.5 55.2655 15.4706 55.2655 10.5C55.2655 5.52944 51.2361 1.5 46.2655 1.5C41.295 1.5 37.2655 5.52944 37.2655 10.5C37.2655 15.4706 41.295 19.5 46.2655 19.5Z" fill="#008BDC" stroke="#EBF8FF" stroke-width="3"/>
<path d="M19 19.5C10.4487 19.5 3.33271 25.632 1.80373 33.7382C1.28614 36.4823 3.6098 38.5 6.00002 38.5H32C34.3902 38.5 36.7139 36.4823 36.1963 33.7382C34.6673 25.632 27.5514 19.5 19 19.5ZM18.5 19.5C23.4706 19.5 27.5 15.4706 27.5 10.5C27.5 5.52944 23.4706 1.5 18.5 1.5C13.5295 1.5 9.50002 5.52944 9.50002 10.5C9.50002 15.4706 13.5295 19.5 18.5 19.5Z" fill="#008BDC" stroke="#EBF8FF" stroke-width="3"/>
</svg>
