<svg width="47" height="46" viewBox="0 0 47 46" fill="none" xmlns="http://www.w3.org/2000/svg">
<path d="M36.8524 6.43969C36.8524 5.93159 36.4399 5.51969 35.9311 5.51969H10.1344C9.62556 5.51969 9.21308 5.93159 9.21308 6.43969V23.9197H36.8524V6.43969ZM38.695 25.0746C38.8527 25.2947 38.9795 25.5406 39.0684 25.8069L42.3337 35.5888L42.3334 35.5892C42.3638 35.6805 42.3803 35.7782 42.3803 35.8797C42.3803 39.4364 39.4929 42.3197 35.9311 42.3197H10.1344C6.57261 42.3197 3.68521 39.4364 3.68521 35.8797C3.68521 35.7635 3.70678 35.6523 3.74613 35.55L6.99846 25.8069C7.0871 25.5414 7.21348 25.2962 7.37046 25.0765V6.43969C7.37046 4.91538 8.60791 3.67969 10.1344 3.67969H35.9311C37.4576 3.67969 38.695 4.91538 38.695 6.43969V25.0746ZM5.61998 36.7997C6.0468 38.8993 7.90578 40.4797 10.1344 40.4797H35.9311C38.1597 40.4797 40.0187 38.8993 40.4455 36.7997H5.61998ZM37.3204 26.3888C37.195 26.0131 36.8429 25.7597 36.4463 25.7597H9.62056C9.224 25.7597 8.87193 26.0131 8.74653 26.3888L5.88548 34.9597H40.1814L37.3204 26.3888Z" fill="#4A4747"/>
<path d="M19.3475 31.2804H26.718C27.2269 31.2804 27.6393 30.8685 27.6393 30.3604C27.6393 29.8523 27.2269 29.4404 26.718 29.4404H19.3475C18.8387 29.4404 18.4262 29.8523 18.4262 30.3604C18.4262 30.8685 18.8387 31.2804 19.3475 31.2804Z" fill="#008BDC"/>
</svg>
