<svg width="47" height="46" viewBox="0 0 47 46" fill="none" xmlns="http://www.w3.org/2000/svg">
<path d="M7.37048 12.8805V28.5205C7.37048 31.061 9.43291 33.1205 11.977 33.1205H34.0885C36.6326 33.1205 38.6951 31.061 38.6951 28.5205V12.8805H7.37048ZM40.5377 12.8805V28.5205C40.5377 32.0772 37.6503 34.9605 34.0885 34.9605H24.5236L27.5423 40.9893C27.7698 41.4437 27.5853 41.9964 27.1302 42.2236C26.6751 42.4508 26.1217 42.2666 25.8942 41.8122L23.033 36.0979L20.1718 41.8122C19.9442 42.2666 19.3908 42.4508 18.9357 42.2236C18.4806 41.9964 18.2961 41.4437 18.5237 40.9893L21.5424 34.9605H11.977C8.41526 34.9605 5.52786 32.0772 5.52786 28.5205V12.8805H4.60655C4.09773 12.8805 3.68524 12.4686 3.68524 11.9605V8.28051C3.68524 6.7562 4.9227 5.52051 6.44917 5.52051H39.6164C41.1428 5.52051 42.3803 6.7562 42.3803 8.28051V11.9605C42.3803 12.4686 41.9678 12.8805 41.459 12.8805H40.5377ZM40.5377 8.28051C40.5377 7.77241 40.1252 7.36051 39.6164 7.36051H6.44917C5.94035 7.36051 5.52786 7.77241 5.52786 8.28051V11.0405H40.5377V8.28051Z" fill="#4A4747"/>
<path d="M19.3475 22.0812H26.718C27.2269 22.0812 27.6393 21.6693 27.6393 21.1612C27.6393 20.6531 27.2269 20.2412 26.718 20.2412H19.3475C18.8387 20.2412 18.4262 20.6531 18.4262 21.1612C18.4262 21.6693 18.8387 22.0812 19.3475 22.0812Z" fill="#008BDC"/>
<path d="M15.6622 27.5988H30.4032C30.912 27.5988 31.3245 27.1869 31.3245 26.6788C31.3245 26.1707 30.912 25.7588 30.4032 25.7588H15.6622C15.1534 25.7588 14.7409 26.1707 14.7409 26.6788C14.7409 27.1869 15.1534 27.5988 15.6622 27.5988Z" fill="#008BDC"/>
</svg>
