<svg width="46" height="46" viewBox="0 0 46 46" fill="none" xmlns="http://www.w3.org/2000/svg">
<path d="M22.08 10.7342C16.6136 8.70305 11.1068 8.70394 5.51999 10.739V38.2009C11.0548 36.3746 16.5845 36.3733 22.08 38.1976V10.7342ZM23.92 10.735V38.1965C29.4518 36.3534 34.9818 36.3523 40.48 38.1937V10.732C34.9918 8.67121 29.4855 8.67178 23.92 10.735V10.735ZM41.7435 9.25152C42.0918 9.3915 42.32 9.72883 42.32 10.1038V39.5019C42.32 40.1473 41.671 40.5915 41.0682 40.3587C35.1706 38.0814 29.273 38.0814 23.3297 40.3596C23.1176 40.4409 22.8829 40.4409 22.6707 40.3597C16.7753 38.1035 10.8755 38.1035 4.92678 40.3607C4.32472 40.5891 3.67999 40.145 3.67999 39.5019V10.1038C3.67999 9.72518 3.91258 9.38535 4.26582 9.24783C10.5676 6.79454 16.8279 6.7503 23.0007 9.11753C29.2824 6.71672 35.546 6.76085 41.7435 9.25152Z" fill="#4A4747"/>
<path d="M28.52 16.5366C28.0119 16.5366 27.6 16.1253 27.6 15.6179C27.6 15.1105 28.0119 14.6992 28.52 14.6992H35.88C36.3881 14.6992 36.8 15.1105 36.8 15.6179C36.8 16.1253 36.3881 16.5366 35.88 16.5366H28.52ZM28.52 22.0487C28.0119 22.0487 27.6 21.6374 27.6 21.1301C27.6 20.6227 28.0119 20.2114 28.52 20.2114H35.88C36.3881 20.2114 36.8 20.6227 36.8 21.1301C36.8 21.6374 36.3881 22.0487 35.88 22.0487H28.52ZM28.52 33.073C28.0119 33.073 27.6 32.6617 27.6 32.1543C27.6 31.647 28.0119 31.2357 28.52 31.2357H35.88C36.3881 31.2357 36.8 31.647 36.8 32.1543C36.8 32.6617 36.3881 33.073 35.88 33.073H28.52ZM10.12 16.5366C9.61191 16.5366 9.20001 16.1253 9.20001 15.6179C9.20001 15.1105 9.61191 14.6992 10.12 14.6992H17.48C17.9881 14.6992 18.4 15.1105 18.4 15.6179C18.4 16.1253 17.9881 16.5366 17.48 16.5366H10.12ZM10.12 22.0487C9.61191 22.0487 9.20001 21.6374 9.20001 21.1301C9.20001 20.6227 9.61191 20.2114 10.12 20.2114H17.48C17.9881 20.2114 18.4 20.6227 18.4 21.1301C18.4 21.6374 17.9881 22.0487 17.48 22.0487H10.12ZM10.12 27.5609C9.61191 27.5609 9.20001 27.1496 9.20001 26.6422C9.20001 26.1348 9.61191 25.7235 10.12 25.7235H17.48C17.9881 25.7235 18.4 26.1348 18.4 26.6422C18.4 27.1496 17.9881 27.5609 17.48 27.5609H10.12ZM10.12 33.073C9.61191 33.073 9.20001 32.6617 9.20001 32.1543C9.20001 31.647 9.61191 31.2357 10.12 31.2357H17.48C17.9881 31.2357 18.4 31.647 18.4 32.1543C18.4 32.6617 17.9881 33.073 17.48 33.073H10.12Z" fill="#008BDC"/>
<path d="M28.52 27.56H35.8801C36.3882 27.56 36.8001 27.1487 36.8001 26.6413C36.8001 26.134 36.3882 25.7227 35.8801 25.7227H28.52C28.0119 25.7227 27.6 26.134 27.6 26.6413C27.6 27.1487 28.0119 27.56 28.52 27.56Z" fill="#008BDC"/>
</svg>
