<svg width="47" height="47" viewBox="0 0 47 47" fill="none" xmlns="http://www.w3.org/2000/svg">
<path d="M27.1918 31.835C27.7096 31.835 28.1294 32.2542 28.1294 32.7713V42.1344C28.1294 42.6515 27.7096 43.0707 27.1918 43.0707H19.6906C19.1727 43.0707 18.7529 42.6515 18.7529 42.1344V32.7713C18.7529 32.2542 19.1727 31.835 19.6906 31.835H27.1918ZM20.6282 33.7076V41.1981H26.2541V33.7076H20.6282Z" fill="#008BDC"/>
<path d="M27.1917 16.8535C27.7096 16.8535 28.1294 17.2727 28.1294 17.7898V23.4077C28.1294 23.9248 27.7096 24.344 27.1917 24.344H19.6906C19.1727 24.344 18.7529 23.9248 18.7529 23.4077V17.7898C18.7529 17.2727 19.1727 16.8535 19.6906 16.8535H27.1917ZM20.6282 18.7261V22.4714H26.2541V18.7261H20.6282ZM8.43881 24.344C8.95666 24.344 9.37646 24.7632 9.37646 25.2803C9.37646 25.7974 8.95666 26.2166 8.43881 26.2166H4.68823C4.17038 26.2166 3.75058 25.7974 3.75058 25.2803C3.75058 24.7632 4.17038 24.344 4.68823 24.344H8.43881ZM8.43881 29.9619C8.95666 29.9619 9.37646 30.3811 9.37646 30.8982C9.37646 31.4153 8.95666 31.8345 8.43881 31.8345H4.68823C4.17038 31.8345 3.75058 31.4153 3.75058 30.8982C3.75058 30.3811 4.17038 29.9619 4.68823 29.9619H8.43881ZM8.43881 35.5797C8.95666 35.5797 9.37646 35.9989 9.37646 36.516C9.37646 37.0331 8.95666 37.4523 8.43881 37.4523H4.68823C4.17038 37.4523 3.75058 37.0331 3.75058 36.516C3.75058 35.9989 4.17038 35.5797 4.68823 35.5797H8.43881ZM42.1941 24.344C42.7119 24.344 43.1317 24.7632 43.1317 25.2803C43.1317 25.7974 42.7119 26.2166 42.1941 26.2166H38.4435C37.9256 26.2166 37.5058 25.7974 37.5058 25.2803C37.5058 24.7632 37.9256 24.344 38.4435 24.344H42.1941ZM42.1941 29.9619C42.7119 29.9619 43.1317 30.3811 43.1317 30.8982C43.1317 31.4153 42.7119 31.8345 42.1941 31.8345H38.4435C37.9256 31.8345 37.5058 31.4153 37.5058 30.8982C37.5058 30.3811 37.9256 29.9619 38.4435 29.9619H42.1941ZM42.1941 35.5797C42.7119 35.5797 43.1317 35.9989 43.1317 36.516C43.1317 37.0331 42.7119 37.4523 42.1941 37.4523H38.4435C37.9256 37.4523 37.5058 37.0331 37.5058 36.516C37.5058 35.9989 37.9256 35.5797 38.4435 35.5797H42.1941Z" fill="#008BDC"/>
<path d="M15.0023 8.42668V41.1976H31.88V8.42668C31.88 8.29244 31.9083 8.1648 31.9592 8.04938L23.4414 5.61918L14.9232 8.0495C14.9741 8.16489 15.0023 8.29249 15.0023 8.42668ZM13.127 18.7261V8.56195L10.5719 9.29094C10.074 9.433 9.55504 9.14509 9.41278 8.64788C9.27051 8.15066 9.55883 7.63243 10.0568 7.49037L23.1838 3.74512H23.699L36.826 7.49037C37.324 7.63243 37.6123 8.15066 37.47 8.64788C37.3277 9.14509 36.8088 9.433 36.3109 9.29094L33.7553 8.56181V18.7261H42.1941C42.7119 18.7261 43.1317 19.1453 43.1317 19.6624V36.516C43.1317 40.1358 40.1931 43.0702 36.5682 43.0702H10.3141C6.68917 43.0702 3.75058 40.1358 3.75058 36.516V19.6624C3.75058 19.1453 4.17038 18.7261 4.68823 18.7261H13.127ZM41.2564 20.5987H33.7553V41.1976H36.5682C39.1574 41.1976 41.2564 39.1016 41.2564 36.516V20.5987ZM13.127 20.5987H5.62587V36.516C5.62587 39.1016 7.72487 41.1976 10.3141 41.1976H13.127V20.5987Z" fill="#4A4747"/>
</svg>
