<svg width="42" height="42" viewBox="0 0 42 42" fill="none" xmlns="http://www.w3.org/2000/svg">
<circle cx="21" cy="21" r="21" fill="#008BDC"/>
<path d="M19.8704 20.3489V25.2829C19.8704 25.5554 20.0916 25.7763 20.3645 25.7763C20.6373 25.7763 20.8586 25.5554 20.8586 25.2829V20.3489C20.8586 20.0764 20.6373 19.8555 20.3645 19.8555C20.0916 19.8555 19.8704 20.0764 19.8704 20.3489Z" fill="#FFA700"/>
<path d="M21.8467 20.3489V25.2829C21.8467 25.5554 22.0679 25.7763 22.3408 25.7763C22.6137 25.7763 22.8349 25.5554 22.8349 25.2829V20.3489C22.8349 20.0764 22.6137 19.8555 22.3408 19.8555C22.0679 19.8555 21.8467 20.0764 21.8467 20.3489Z" fill="#FFA700"/>
<path d="M23.823 25.7757H18.882V27.7493H23.823V25.7757ZM23.823 24.7889V24.6175C23.823 24.427 23.9328 24.2536 24.1051 24.1718C26.3287 23.117 27.7758 20.8765 27.7758 18.3746C27.7758 14.8322 24.9 11.9604 21.3525 11.9604C17.805 11.9604 14.9291 14.8322 14.9291 18.3746C14.9291 20.8765 16.3763 23.117 18.5999 24.1718C18.7722 24.2536 18.882 24.427 18.882 24.6175V24.7889H23.823ZM23.823 28.7361H18.882V29.2295C18.882 30.047 19.5456 30.7097 20.3643 30.7097H22.3407C23.1593 30.7097 23.823 30.047 23.823 29.2295V28.7361ZM13.9409 18.3746C13.9409 14.2872 17.2592 10.9736 21.3525 10.9736C25.4458 10.9736 28.764 14.2872 28.764 18.3746C28.764 21.1538 27.2159 23.6539 24.8112 24.922V29.2295C24.8112 30.5919 23.7051 31.6965 22.3407 31.6965H20.3643C18.9998 31.6965 17.8938 30.5919 17.8938 29.2295V24.922C15.4891 23.6539 13.9409 21.1538 13.9409 18.3746Z" fill="white"/>
</svg>
