<svg width="42" height="42" viewBox="0 0 42 42" fill="none" xmlns="http://www.w3.org/2000/svg">
<circle cx="21" cy="21" r="21" fill="#008BDC"/>
<path d="M25.5582 11.5332H26.4929V27.3995H25.5582V11.5332ZM22.7543 11.5332H23.6889V27.3995H22.7543V11.5332ZM15.0188 31.0835C14.7081 31.2386 14.3425 31.013 14.3425 30.6661V27.8662C14.3425 27.6084 14.5518 27.3995 14.8099 27.3995H18.5484C18.8065 27.3995 19.0157 27.6084 19.0157 27.8662V30.6661C19.0157 31.013 18.6501 31.2386 18.3394 31.0835L16.6791 30.2545L15.0188 31.0835ZM15.2772 29.911L16.4701 29.3154C16.6017 29.2497 16.7566 29.2497 16.8881 29.3154L18.0811 29.911V28.3328H15.2772V29.911Z" fill="#FFA700"/>
<path d="M14.8099 12.4665C14.5518 12.4665 14.3426 12.6754 14.3426 12.9332V26.9328C14.3426 27.1906 14.5518 27.3995 14.8099 27.3995H26.0256C27.3161 27.3995 28.3622 26.3549 28.3622 25.0662V14.7998C28.3622 13.5112 27.3161 12.4665 26.0256 12.4665H14.8099ZM14.8099 11.5332H26.0256C27.8323 11.5332 29.2969 12.9957 29.2969 14.7998V25.0662C29.2969 26.8703 27.8323 28.3328 26.0256 28.3328H14.8099C14.0356 28.3328 13.408 27.706 13.408 26.9328V12.9332C13.408 12.16 14.0356 11.5332 14.8099 11.5332Z" fill="white"/>
</svg>
