<svg width="42" height="42" viewBox="0 0 42 42" fill="none" xmlns="http://www.w3.org/2000/svg">
<circle cx="21" cy="21" r="21" fill="#008BDC"/>
<path d="M24.712 11.8818C24.9769 11.8653 25.2052 12.0663 25.2217 12.3309C25.2383 12.5955 25.037 12.8234 24.772 12.8399C23.7315 12.905 22.7885 13.4933 22.3933 14.2352C22.039 14.9001 22.2269 15.4526 23.0347 15.7624C25.1215 16.5627 25.645 17.2878 25.5344 18.5014C25.4226 19.7288 24.4765 20.6216 22.5359 20.6216C21.9081 20.6216 21.432 21.3441 21.5052 22.1557C21.5803 22.989 22.1662 23.3738 23.2904 22.9928C26.774 21.8124 28.9143 24.157 28.027 27.8333C27.9648 28.091 27.7051 28.2496 27.447 28.1875C27.189 28.1254 27.0302 27.8661 27.0924 27.6084C27.8131 24.6224 26.3152 22.9816 23.5994 23.9019C21.8836 24.4833 20.6783 23.6918 20.5477 22.2418C20.4291 20.9254 21.2618 19.6616 22.5359 19.6616C23.972 19.6616 24.5096 19.1543 24.5791 18.3913C24.646 17.6573 24.3977 17.3135 22.69 16.6585C21.3301 16.137 20.9253 14.9467 21.5445 13.7844C22.099 12.7435 23.343 11.9674 24.712 11.8818ZM17.6518 29.2872C17.8468 29.4665 17.8598 29.7702 17.6807 29.9654C17.5017 30.1607 17.1984 30.1737 17.0033 29.9945C15.6756 28.7743 15.831 27.4347 17.388 26.3027C19.163 25.0121 19.0118 23.2011 16.9575 22.6195C14.1257 21.8178 12.8692 19.3595 14.592 17.7345C14.8748 17.4693 15.0083 17.3433 15.1377 17.2164C16.4011 15.9773 16.4613 15.2396 14.8689 13.662C14.6806 13.4756 14.6791 13.1717 14.8653 12.9832C15.0516 12.7948 15.3552 12.7932 15.5434 12.9797C17.5425 14.9602 17.4326 16.3097 15.8088 17.9022C15.6717 18.0366 15.5304 18.1699 15.2496 18.4332C14.1769 19.445 15.0074 21.0698 17.2184 21.6958C20.0978 22.5109 20.3345 25.3468 17.9515 27.0794C16.8643 27.8698 16.7916 28.4968 17.6518 29.2872Z" fill="#FFA700"/>
<path d="M21.017 31.0799C15.442 31.0799 10.9226 26.5669 10.9226 20.9999C10.9226 15.4329 15.442 10.9199 21.017 10.9199C26.5919 10.9199 31.1113 15.4329 31.1113 20.9999C31.1113 26.5669 26.5919 31.0799 21.017 31.0799ZM21.017 30.1199C26.061 30.1199 30.15 26.0367 30.15 20.9999C30.15 15.9631 26.061 11.8799 21.017 11.8799C15.973 11.8799 11.884 15.9631 11.884 20.9999C11.884 26.0367 15.973 30.1199 21.017 30.1199Z" fill="white"/>
</svg>
