<svg width="42" height="42" viewBox="0 0 42 42" fill="none" xmlns="http://www.w3.org/2000/svg">
<circle cx="21" cy="21" r="21" fill="#008BDC"/>
<path d="M30.6309 22.4395H11.4035C11.1381 22.4395 10.9229 22.6544 10.9229 22.9195C10.9229 23.1846 11.1381 23.3995 11.4035 23.3995H30.6309C30.8964 23.3995 31.1116 23.1846 31.1116 22.9195C31.1116 22.6544 30.8964 22.4395 30.6309 22.4395Z" fill="#FFA700"/>
<path d="M18.8251 30.1199H23.4206L22.6515 26.2799H19.5942L18.8251 30.1199ZM23.6319 26.2799L24.401 30.1199H25.824C26.0895 30.1199 26.3047 30.3348 26.3047 30.5999C26.3047 30.865 26.0895 31.0799 25.824 31.0799H16.2104C15.9449 31.0799 15.7297 30.865 15.7297 30.5999C15.7297 30.3348 15.9449 30.1199 16.2104 30.1199H17.8447L18.6138 26.2799H14.2876C12.4293 26.2799 10.9229 24.7756 10.9229 22.9199V12.3599C10.9229 11.5646 11.5685 10.9199 12.3649 10.9199H29.6695C30.4659 10.9199 31.1116 11.5646 31.1116 12.3599V22.9199C31.1116 24.7756 29.6051 26.2799 27.7468 26.2799H23.6319ZM12.3649 11.8799C12.0994 11.8799 11.8842 12.0948 11.8842 12.3599V22.9199C11.8842 24.2454 12.9603 25.3199 14.2876 25.3199H27.7468C29.0742 25.3199 30.1502 24.2454 30.1502 22.9199V12.3599C30.1502 12.0948 29.935 11.8799 29.6695 11.8799H12.3649Z" fill="white"/>
</svg>
