<svg width="42" height="42" viewBox="0 0 42 42" fill="none" xmlns="http://www.w3.org/2000/svg">
<circle cx="21" cy="21" r="21" fill="#008BDC"/>
<path d="M29.4942 19.1276L27.5434 20.2099C27.5443 20.2222 27.5448 20.2346 27.5448 20.2472V26.1952C27.5448 26.3137 27.5015 26.428 27.4232 26.5169C26.2326 27.8668 24.1534 28.5204 21.2092 28.5204C18.265 28.5204 16.1858 27.8668 14.9952 26.5169C14.9168 26.428 14.8736 26.3137 14.8736 26.1952V20.2472C14.8736 20.2346 14.8741 20.2222 14.875 20.2099L12.2001 18.726C11.8659 18.5405 11.8659 18.0605 12.2001 17.8751L20.9725 13.0085C21.1197 12.9269 21.2987 12.9269 21.4459 13.0085L30.2097 17.8704C30.3639 17.9521 30.4689 18.1141 30.4689 18.3005V27.5471H29.4942V19.1276ZM26.5701 20.7498L21.4459 23.5926C21.2987 23.6742 21.1197 23.6742 20.9725 23.5926L15.8483 20.7498V26.0042C16.8463 27.0202 18.6263 27.5471 21.2092 27.5471C23.7921 27.5471 25.5721 27.0202 26.5701 26.0042V20.7498ZM13.4403 18.3005L21.2092 22.6104L28.978 18.3005L21.2092 13.9906L13.4403 18.3005Z" fill="white"/>
<path d="M29.9815 32.597C28.6357 32.597 27.5447 31.5076 27.5447 30.1637C27.5447 29.2714 28.2556 28.2065 29.6462 26.8905L29.9815 26.5732L30.3167 26.8905C31.7073 28.2065 32.4182 29.2714 32.4182 30.1637C32.4182 31.5076 31.3272 32.597 29.9815 32.597ZM28.5194 30.1637C28.5194 30.97 29.174 31.6237 29.9815 31.6237C30.7889 31.6237 31.4435 30.97 31.4435 30.1637C31.4435 29.6752 30.9638 28.9091 29.9815 27.9233C28.9991 28.9091 28.5194 29.6752 28.5194 30.1637Z" fill="#FFA700"/>
</svg>
