<svg width="42" height="42" viewBox="0 0 42 42" fill="none" xmlns="http://www.w3.org/2000/svg">
<circle cx="21" cy="21" r="21" fill="#008BDC"/>
<path d="M23.311 23.4478C22.0791 22.0591 20.1059 22.0591 18.874 23.4478L19.2938 24.1785C20.2806 23.0661 21.9045 23.0661 22.8913 24.1785L23.311 23.4478Z" fill="#FFA700"/>
<path d="M12.6813 22.9772C12.6617 22.9126 12.6566 22.8426 12.6692 22.7715L14.1373 14.4875C14.3249 13.4294 15.2458 12.6582 16.3219 12.6582H16.6557C16.9007 12.6582 17.0994 12.8566 17.0994 13.1013C17.0994 13.346 16.9007 13.5443 16.6557 13.5443H16.3219C15.6762 13.5443 15.1237 14.007 15.0111 14.6419L13.689 22.102C14.2946 21.7325 15.0065 21.5195 15.7682 21.5195C17.9736 21.5195 19.7615 23.3049 19.7615 25.5071C19.7615 27.7094 17.9736 29.4947 15.7682 29.4947C13.5628 29.4947 11.7749 27.7094 11.7749 25.5071C11.7749 24.5467 12.1149 23.6656 12.6813 22.9772ZM28.4962 22.1021L27.1741 14.6419C27.0615 14.007 26.509 13.5443 25.8633 13.5443H25.5295C25.2845 13.5443 25.0858 13.346 25.0858 13.1013C25.0858 12.8566 25.2845 12.6582 25.5295 12.6582H25.8633C26.9394 12.6582 27.8603 13.4294 28.0479 14.4875L29.516 22.7715C29.5286 22.8426 29.5235 22.9127 29.5038 22.9773C30.0702 23.6656 30.4102 24.5467 30.4102 25.5071C30.4102 27.7094 28.6224 29.4947 26.4169 29.4947C24.2115 29.4947 22.4237 27.7094 22.4237 25.5071C22.4237 23.3049 24.2115 21.5195 26.4169 21.5195C27.1787 21.5195 27.8906 21.7325 28.4962 22.1021ZM15.7682 28.6086C17.4835 28.6086 18.8741 27.22 18.8741 25.5071C18.8741 23.7943 17.4835 22.4057 15.7682 22.4057C14.0529 22.4057 12.6623 23.7943 12.6623 25.5071C12.6623 27.22 14.0529 28.6086 15.7682 28.6086ZM26.4169 28.6086C28.1323 28.6086 29.5228 27.22 29.5228 25.5071C29.5228 23.7943 28.1323 22.4057 26.4169 22.4057C24.7016 22.4057 23.3111 23.7943 23.3111 25.5071C23.3111 27.22 24.7016 28.6086 26.4169 28.6086Z" fill="white"/>
</svg>
