<svg width="42" height="42" viewBox="0 0 42 42" fill="none" xmlns="http://www.w3.org/2000/svg">
<circle cx="21" cy="21" r="21" fill="#008BDC"/>
<path d="M28.3306 13.062L29.0437 13.7741L14.7817 28.0158L14.0686 27.3037L28.3306 13.062ZM29.0437 13.7741L14.7817 28.0158L14.0686 27.3037L28.3306 13.062L29.0437 13.7741Z" fill="#FFA700"/>
<path d="M16.7202 28.9657L29.8911 15.8134C30.0928 15.6121 30.0928 15.2856 29.8911 15.0842L27.0187 12.2158C26.817 12.0144 26.49 12.0144 26.2884 12.2158L13.1196 25.3658L16.7202 28.9657ZM15.5931 29.2496L12.8336 26.4906L12.1979 29.8839L15.5931 29.2496ZM27.7246 11.5109L30.5971 14.3793C31.1886 14.97 31.1886 15.9277 30.5971 16.5184L17.2265 29.8699C17.1553 29.941 17.0642 29.989 16.9653 30.0074L11.6649 30.9977C11.32 31.0622 11.018 30.7605 11.0825 30.4161L12.0742 25.1233C12.0927 25.0245 12.1407 24.9335 12.2119 24.8625L25.5824 11.5109C26.174 10.9202 27.1331 10.9202 27.7246 11.5109Z" fill="white"/>
</svg>
