<svg width="42" height="42" viewBox="0 0 42 42" fill="none" xmlns="http://www.w3.org/2000/svg">
<circle cx="21" cy="21" r="21" fill="#008BDC"/>
<path d="M14.7741 15.7657V18.6486H27.2847V15.7657H14.7741ZM14.2929 14.8047H27.7659C28.0316 14.8047 28.247 15.0198 28.247 15.2852V19.1291C28.247 19.3945 28.0316 19.6096 27.7659 19.6096H14.2929C14.0272 19.6096 13.8118 19.3945 13.8118 19.1291V15.2852C13.8118 15.0198 14.0272 14.8047 14.2929 14.8047Z" fill="#FFA700"/>
<path d="M16.2176 21.5322C16.4834 21.5322 16.6988 21.7474 16.6988 22.0127C16.6988 22.2781 16.4834 22.4932 16.2176 22.4932H14.2929C14.0272 22.4932 13.8118 22.2781 13.8118 22.0127C13.8118 21.7474 14.0272 21.5322 14.2929 21.5322H16.2176ZM27.7659 21.5322C28.0316 21.5322 28.247 21.7474 28.247 22.0127C28.247 22.2781 28.0316 22.4932 27.7659 22.4932H25.8412C25.5754 22.4932 25.36 22.2781 25.36 22.0127C25.36 21.7474 25.5754 21.5322 25.8412 21.5322H27.7659ZM21.9918 21.5322C22.2575 21.5322 22.4729 21.7474 22.4729 22.0127C22.4729 22.2781 22.2575 22.4932 21.9918 22.4932H20.0671C19.8013 22.4932 19.5859 22.2781 19.5859 22.0127C19.5859 21.7474 19.8013 21.5322 20.0671 21.5322H21.9918ZM16.2176 24.4152C16.4834 24.4152 16.6988 24.6303 16.6988 24.8957C16.6988 25.161 16.4834 25.3762 16.2176 25.3762H14.2929C14.0272 25.3762 13.8118 25.161 13.8118 24.8957C13.8118 24.6303 14.0272 24.4152 14.2929 24.4152H16.2176ZM27.7659 24.4152C28.0316 24.4152 28.247 24.6303 28.247 24.8957C28.247 25.161 28.0316 25.3762 27.7659 25.3762H25.8412C25.5754 25.3762 25.36 25.161 25.36 24.8957C25.36 24.6303 25.5754 24.4152 25.8412 24.4152H27.7659ZM21.9918 24.4152C22.2575 24.4152 22.4729 24.6303 22.4729 24.8957C22.4729 25.161 22.2575 25.3762 21.9918 25.3762H20.0671C19.8013 25.3762 19.5859 25.161 19.5859 24.8957C19.5859 24.6303 19.8013 24.4152 20.0671 24.4152H21.9918ZM16.2176 27.2981C16.4834 27.2981 16.6988 27.5133 16.6988 27.7786C16.6988 28.044 16.4834 28.2591 16.2176 28.2591H14.2929C14.0272 28.2591 13.8118 28.044 13.8118 27.7786C13.8118 27.5133 14.0272 27.2981 14.2929 27.2981H16.2176ZM27.7659 27.2981C28.0316 27.2981 28.247 27.5133 28.247 27.7786C28.247 28.044 28.0316 28.2591 27.7659 28.2591H25.8412C25.5754 28.2591 25.36 28.044 25.36 27.7786C25.36 27.5133 25.5754 27.2981 25.8412 27.2981H27.7659ZM21.9918 27.2981C22.2575 27.2981 22.4729 27.5133 22.4729 27.7786C22.4729 28.044 22.2575 28.2591 21.9918 28.2591H20.0671C19.8013 28.2591 19.5859 28.044 19.5859 27.7786C19.5859 27.5133 19.8013 27.2981 20.0671 27.2981H21.9918Z" fill="#FFA700"/>
<path d="M12.3683 12.8829C12.1026 12.8829 11.8872 13.098 11.8872 13.3634V28.7391C11.8872 30.066 12.9643 31.1416 14.293 31.1416H27.766C29.0947 31.1416 30.1719 30.066 30.1719 28.7391V13.3634C30.1719 13.098 29.9565 12.8829 29.6907 12.8829H12.3683ZM12.3683 11.9219H29.6907C30.488 11.9219 31.1342 12.5672 31.1342 13.3634V28.7391C31.1342 30.5967 29.6262 32.1026 27.766 32.1026H14.293C12.4328 32.1026 10.9248 30.5967 10.9248 28.7391V13.3634C10.9248 12.5672 11.5711 11.9219 12.3683 11.9219Z" fill="white"/>
</svg>
