<svg width="42" height="42" viewBox="0 0 42 42" fill="none" xmlns="http://www.w3.org/2000/svg">
<circle cx="21" cy="21" r="21" fill="#008BDC"/>
<path d="M20.0269 17.5605L20.0845 18.5188C19.5622 18.5501 19.2428 18.5704 19.133 18.5793C16.1326 18.8213 13.8068 21.2933 13.8068 24.2682C13.8068 26.3232 14.9209 28.1881 16.6963 29.2044L16.2182 30.0373C14.1478 28.8521 12.8455 26.672 12.8455 24.2682C12.8455 20.7892 15.5597 17.9044 19.0556 17.6224C19.1749 17.6128 19.4963 17.5923 20.0269 17.5605ZM26.7853 26.2005C27.0508 26.2005 27.266 26.4155 27.266 26.6805C27.266 26.9456 27.0508 27.1605 26.7853 27.1605H22.9398C22.6743 27.1605 22.4591 26.9456 22.4591 26.6805C22.4591 26.4155 22.6743 26.2005 22.9398 26.2005H26.7853Z" fill="#FFA700"/>
<path d="M24.3818 29.0801V27.1602H25.3431V29.0801H30.6307C30.8961 29.0801 31.1113 29.295 31.1113 29.5601C31.1113 29.8252 30.8961 30.0401 30.6307 30.0401H11.4033C11.1378 30.0401 10.9226 29.8252 10.9226 29.5601C10.9226 29.295 11.1378 29.0801 11.4033 29.0801H24.3818Z" fill="white"/>
<path d="M17.522 13.4182L21.7796 19.788C21.9425 20.0173 22.2429 20.067 22.4585 19.9107L23.7114 19.0023C23.9226 18.8492 23.9749 18.5544 23.8295 18.3369L19.5561 11.9435L17.522 13.4182ZM24.1145 19.9048L25.2499 21.5623C25.6521 22.0659 24.9036 22.6749 24.5014 22.1712L23.3357 20.4694L23.0194 20.6988C22.3725 21.1678 21.4715 21.0187 21.0068 20.3658C20.9946 20.3484 20.9946 20.3484 20.9826 20.3307L16.7373 13.9793L15.5365 14.85C15.0159 15.2274 14.4551 14.4393 14.9756 14.0619L20.6061 9.97965C21.1267 9.60225 21.6875 10.3904 21.167 10.7678L20.3337 11.3719L24.6265 17.7942C25.0626 18.4468 24.9058 19.3311 24.2723 19.7904L24.1145 19.9048Z" fill="white"/>
</svg>
