<svg width="42" height="42" viewBox="0 0 42 42" fill="none" xmlns="http://www.w3.org/2000/svg">
<circle cx="21" cy="21" r="21" fill="#008BDC"/>
<path d="M25.6414 24.3599L23.5058 21.2727C23.4503 21.1925 23.4206 21.0974 23.4206 20.9999V14.7599H18.6138V20.9999C18.6138 21.0974 18.5841 21.1925 18.5286 21.2727L16.393 24.3599H25.6414ZM26.3046 25.3186V25.3199H15.7295V25.3191L12.9322 29.363C12.7806 29.5811 12.8334 29.8825 13.0487 30.0343C13.1278 30.0901 13.2218 30.1199 13.3179 30.1199H28.7166C28.9764 30.1199 29.1888 29.9059 29.1888 29.6399C29.1888 29.5407 29.1586 29.444 29.1018 29.3622L26.3046 25.3186ZM24.382 14.7599V20.8503L29.8922 28.8158C30.0602 29.0575 30.1502 29.3452 30.1502 29.6399C30.1502 30.4343 29.5093 31.0799 28.7166 31.0799H13.3179C13.023 31.0799 12.7354 30.9886 12.4942 30.8185C11.8471 30.3622 11.6902 29.4664 12.1417 28.8166L17.6524 20.8503V14.7599C16.5903 14.7599 15.7295 13.9003 15.7295 12.8399C15.7295 11.7795 16.5903 10.9199 17.6522 10.9199H24.3818C25.4437 10.9199 26.3046 11.7795 26.3046 12.8399C26.3046 13.9003 25.4438 14.7598 24.382 14.7599ZM24.3818 13.7999C24.9128 13.7999 25.3432 13.3701 25.3432 12.8399C25.3432 12.3097 24.9128 11.8799 24.3818 11.8799H17.6522C17.1213 11.8799 16.6909 12.3097 16.6909 12.8399C16.6909 13.3701 17.1213 13.7999 17.6522 13.7999H24.3818Z" fill="white"/>
<path fill-rule="evenodd" clip-rule="evenodd" d="M16.0111 28.8791C16.3865 29.254 16.9952 29.254 17.3707 28.8791C17.7461 28.5042 17.7461 27.8963 17.3707 27.5214C16.9952 27.1465 16.3865 27.1465 16.0111 27.5214C15.6356 27.8963 15.6356 28.5042 16.0111 28.8791Z" fill="#FFA700"/>
<path fill-rule="evenodd" clip-rule="evenodd" d="M18.8953 27.9181C19.2708 28.293 19.8795 28.293 20.2549 27.9181C20.6304 27.5432 20.6304 26.9354 20.2549 26.5605C19.8795 26.1856 19.2708 26.1856 18.8953 26.5605C18.5199 26.9354 18.5199 27.5432 18.8953 27.9181Z" fill="#FFA700"/>
</svg>
