<svg width="50" height="50" viewBox="0 0 50 50" fill="none" xmlns="http://www.w3.org/2000/svg">
<circle cx="25" cy="25" r="25" fill="#4A6C8F"/>
<path d="M34.579 20.8548C34.719 20.3898 34.579 20.0488 33.917 20.0488H31.724C31.166 20.0488 30.911 20.3438 30.771 20.6678C30.771 20.6678 29.656 23.3868 28.076 25.1498C27.566 25.6628 27.333 25.8248 27.055 25.8248C26.916 25.8248 26.714 25.6628 26.714 25.1978V20.8548C26.714 20.2968 26.553 20.0488 26.088 20.0488H22.642C22.294 20.0488 22.084 20.3068 22.084 20.5528C22.084 21.0808 22.874 21.2028 22.955 22.6908V25.9188C22.955 26.6258 22.828 26.7548 22.548 26.7548C21.805 26.7548 19.997 24.0258 18.924 20.9018C18.715 20.2948 18.504 20.0498 17.944 20.0498H15.752C15.125 20.0498 15 20.3448 15 20.6688C15 21.2508 15.743 24.1308 18.461 27.9398C20.273 30.5408 22.824 31.9508 25.148 31.9508C26.541 31.9508 26.713 31.6378 26.713 31.0978V29.1318C26.713 28.5058 26.846 28.3798 27.287 28.3798C27.611 28.3798 28.169 28.5438 29.47 29.7968C30.956 31.2828 31.202 31.9498 32.037 31.9498H34.229C34.855 31.9498 35.168 31.6368 34.988 31.0188C34.791 30.4038 34.081 29.5088 33.139 28.4498C32.627 27.8458 31.862 27.1958 31.629 26.8708C31.304 26.4518 31.398 26.2668 31.629 25.8948C31.63 25.8958 34.301 22.1338 34.579 20.8548Z" fill="white"/>
</svg>
