<svg width="43" height="47" viewBox="0 0 43 47" fill="none" xmlns="http://www.w3.org/2000/svg">
<path d="M21.5 28.8126C18.4624 28.8126 16 26.3643 16 23.3443C16 20.3242 18.4624 17.876 21.5 17.876C24.5376 17.876 27 20.3242 27 23.3443C27 26.3643 24.5376 28.8126 21.5 28.8126ZM21.5 26.6253C23.3226 26.6253 24.8 25.1563 24.8 23.3443C24.8 21.5322 23.3226 20.0633 21.5 20.0633C19.6775 20.0633 18.2 21.5322 18.2 23.3443C18.2 25.1563 19.6775 26.6253 21.5 26.6253Z" fill="#4A4747"/>
<path d="M21.5 46.3114C14.6101 46.3114 9.39996 35.9512 9.39996 23.3443C9.39996 10.7374 14.6101 0.377197 21.5 0.377197C28.3899 0.377197 33.6 10.7374 33.6 23.3443C33.6 35.9512 28.3899 46.3114 21.5 46.3114ZM21.5 44.1241C26.7603 44.1241 31.4 34.8982 31.4 23.3443C31.4 11.7905 26.7603 2.56454 21.5 2.56454C16.2396 2.56454 11.6 11.7905 11.6 23.3443C11.6 34.8982 16.2396 44.1241 21.5 44.1241Z" fill="#008BDC"/>
<path d="M15.4362 34.3025C4.49671 27.6449 -1.88436 17.4575 1.51625 11.2489C4.95107 4.97775 16.5965 5.71456 27.565 12.3898C38.5045 19.0473 44.8855 29.2347 41.4849 35.4434C38.0501 41.7145 26.4047 40.9777 15.4362 34.3025ZM26.4164 14.2554C16.3779 8.14607 6.07772 7.49438 3.44833 12.295C0.784731 17.158 6.51722 26.3099 16.5848 32.4368C26.6233 38.5461 36.9235 39.1978 39.5529 34.3972C42.2165 29.5342 36.484 20.3823 26.4164 14.2554Z" fill="#008BDC"/>
<path d="M3.44833 34.3972C6.07772 39.1978 16.3779 38.5461 26.4164 32.4368C36.484 26.3099 42.2165 17.158 39.5529 12.295C36.9235 7.49438 26.6233 8.14607 16.5848 14.2554C6.51722 20.3823 0.784731 29.5342 3.44833 34.3972ZM1.51625 35.4434C-1.88436 29.2347 4.49671 19.0473 15.4362 12.3898C26.4047 5.71456 38.0501 4.97775 41.4849 11.2489C44.8855 17.4575 38.5045 27.6449 27.565 34.3025C16.5965 40.9777 4.95107 41.7145 1.51625 35.4434Z" fill="#008BDC"/>
</svg>
