<svg width="41" height="40" viewBox="0 0 41 40" fill="none" xmlns="http://www.w3.org/2000/svg">
<path d="M11.1201 2.50393C10.6002 2.50393 10.1788 2.92295 10.1788 3.43985V16.5428C10.1788 22.2286 14.8147 26.8379 20.5335 26.8379C26.2523 26.8379 30.8882 22.2286 30.8882 16.5428V3.43985C30.8882 2.92295 30.4668 2.50393 29.9469 2.50393H11.1201ZM21.4748 28.6743C21.1642 28.6978 20.8502 28.7098 20.5335 28.7098C20.2168 28.7098 19.9028 28.6978 19.5922 28.6743V34.3253H17.7095V28.3842C12.5926 27.1824 8.71676 22.7869 8.32819 17.4307C4.07677 16.9797 0.765381 13.402 0.765381 9.05539V3.43985C0.765381 2.92295 1.18683 2.50393 1.70672 2.50393H8.45679C8.84447 1.4134 9.89052 0.63208 11.1201 0.63208H29.9469C31.1765 0.63208 32.2225 1.4134 32.6102 2.50393H39.3603C39.8802 2.50393 40.3016 2.92295 40.3016 3.43985V9.05539C40.3016 13.402 36.9902 16.9797 32.7388 17.4307C32.3503 22.7869 28.4745 27.1824 23.3575 28.3842V34.3253H21.4748V28.6743ZM38.419 4.37577H32.7709V15.5405C35.9642 15.0864 38.419 12.3559 38.419 9.05539V4.37577ZM2.64806 4.37577V9.05539C2.64806 12.3559 5.1028 15.0864 8.2961 15.5405V4.37577H2.64806Z" fill="#008BDC"/>
<path d="M13.9441 38.0697H27.1228V37.1337C27.1228 35.5829 25.8585 34.3258 24.2988 34.3258H16.7681C15.2084 34.3258 13.9441 35.5829 13.9441 37.1337V38.0697ZM29.0055 39.9416H12.0614V37.1337C12.0614 34.5491 14.1687 32.4539 16.7681 32.4539H24.2988C26.8982 32.4539 29.0055 34.5491 29.0055 37.1337V39.9416Z" fill="#4A4747"/>
</svg>
