<svg width="42" height="47" viewBox="0 0 42 47" fill="none" xmlns="http://www.w3.org/2000/svg">
<path d="M7.56154 24.5804C6.18725 22.2362 5.39996 19.5101 5.39996 16.6011C5.39996 7.83734 12.5455 0.73291 21.3599 0.73291C30.1744 0.73291 37.3199 7.83734 37.3199 16.6011C37.3199 19.5095 36.533 22.2351 35.1592 24.579L41.788 39.9572C42.1104 40.7051 41.5586 41.5371 40.7402 41.5371H34.3724L30.1463 45.7389C29.5961 46.286 28.6685 46.1363 28.3205 45.4443L21.7926 32.4636C21.6489 32.4674 21.5046 32.4693 21.3599 32.4693C21.2158 32.4693 21.072 32.4674 20.9287 32.4636L14.4008 45.4443C14.0528 46.1363 13.1253 46.286 12.5751 45.7389L8.34898 41.5371H1.98119C1.16277 41.5371 0.610976 40.7051 0.933368 39.9572L7.56154 24.5804ZM9.10134 26.7629L3.71005 39.2702H8.82119C9.12353 39.2702 9.4135 39.3896 9.62729 39.6022L13.0689 43.024L18.5042 32.216C14.7484 31.5414 11.4496 29.5602 9.10134 26.7629ZM33.6195 26.7617C31.2715 29.5593 27.9729 31.5408 24.2171 32.2157L29.6525 43.024L33.0941 39.6022C33.3079 39.3896 33.5978 39.2702 33.9002 39.2702H39.0113L33.6195 26.7617ZM21.3599 30.2024C28.9152 30.2024 35.0399 24.1129 35.0399 16.6011C35.0399 9.08931 28.9152 2.99979 21.3599 2.99979C13.8047 2.99979 7.67996 9.08931 7.67996 16.6011C7.67996 24.1129 13.8047 30.2024 21.3599 30.2024Z" fill="#008BDC"/>
<path d="M30.48 15.4672C30.48 10.2546 25.6911 5.26611 20.22 5.26611C19.5904 5.26611 19.08 5.77358 19.08 6.39957C19.08 7.02556 19.5904 7.53302 20.22 7.53302C24.4075 7.53302 28.2 11.4836 28.2 15.4672C28.2 16.0932 28.7104 16.6007 29.34 16.6007C29.9696 16.6007 30.48 16.0932 30.48 15.4672Z" fill="#4A4747"/>
</svg>
