<svg width="43" height="38" viewBox="0 0 43 38" fill="none" xmlns="http://www.w3.org/2000/svg">
<path d="M40.1814 11.5702C40.1814 9.95349 38.8632 8.64291 37.2372 8.64291H35.3106C34.7686 8.64291 34.3292 8.20605 34.3292 7.66716C34.3292 7.12827 34.7686 6.69141 35.3106 6.69141H37.2372C39.9472 6.69141 42.1442 8.8757 42.1442 11.5702V36.9397C42.1442 37.5826 41.5296 38.0498 40.9056 37.8813C38.3821 37.2 32.4784 35.3497 31.5668 35.1077C28.6443 34.332 25.9359 34.0124 21.5349 34.0124C17.1338 34.0124 14.4254 34.332 11.5029 35.1077C10.5913 35.3497 4.68757 37.2 2.16412 37.8813C1.54006 38.0498 0.925537 37.5826 0.925537 36.9397V11.5702C0.925537 8.8757 3.12247 6.69141 5.83252 6.69141H7.79627C8.33828 6.69141 8.77766 7.12827 8.77766 7.66716C8.77766 8.20605 8.33828 8.64291 7.79627 8.64291H5.83252C4.20649 8.64291 2.88833 9.95349 2.88833 11.5702V35.6496C5.70149 34.8364 10.1675 33.4424 10.9966 33.2223C14.0928 32.4004 16.9701 32.0609 21.5349 32.0609C26.0996 32.0609 28.9769 32.4004 32.0731 33.2223C32.9022 33.4424 37.3682 34.8364 40.1814 35.6496V11.5702Z" fill="#4A4747"/>
<path d="M20.5535 6.24307C17.1666 4.09659 13.2471 2.94955 8.77681 2.80423V28.173C13.1435 28.3076 17.0737 29.3476 20.5535 31.2942V6.24307ZM22.5163 6.2469V31.3012C26.0216 29.3514 29.9516 28.3089 34.2931 28.1732V2.80456C29.8677 2.95132 25.9481 4.0991 22.5163 6.2469ZM35.2745 0.836914C35.8165 0.836914 36.2559 1.27377 36.2559 1.81267V29.1337C36.2559 29.6726 35.8165 30.1095 35.2745 30.1095C30.2689 30.1095 25.8774 31.357 22.0754 33.8511C21.7462 34.0671 21.3189 34.0662 20.9907 33.8487C17.2297 31.3566 12.8396 30.1095 7.79542 30.1095C7.25341 30.1095 6.81403 29.6726 6.81403 29.1337V1.81267C6.81403 1.27377 7.25341 0.836914 7.79542 0.836914C13.0085 0.836914 17.5969 2.07474 21.5384 4.55315C25.5266 2.07526 30.1125 0.836914 35.2745 0.836914Z" fill="#008BDC"/>
</svg>
