<svg width="46" height="45" viewBox="0 0 46 45" fill="none" xmlns="http://www.w3.org/2000/svg">
<path d="M31.0323 6.83362C30.6091 4.26735 28.4119 2.38643 25.8374 2.38643H19.6919C17.1175 2.38643 14.9203 4.26735 14.4971 6.83362L13.475 13.0307H32.0544L31.0323 6.83362ZM19.6919 0.257568H25.8374C29.4417 0.257568 32.5177 2.89085 33.1103 6.48364L34.5412 15.1596H10.9882L12.4191 6.48364C13.0116 2.89085 16.0877 0.257568 19.6919 0.257568ZM14.2 34.3193C13.6087 34.3193 13.1294 33.8428 13.1294 33.2549C13.1294 32.667 13.6087 32.1905 14.2 32.1905H31.3294C31.9207 32.1905 32.4 32.667 32.4 33.2549C32.4 33.8428 31.9207 34.3193 31.3294 34.3193H14.2Z" fill="#4A4747"/>
<path d="M3.49409 15.1596C2.90282 15.1596 2.4235 15.6362 2.4235 16.2241V18.3529C2.4235 18.9408 2.90282 19.4173 3.49409 19.4173H42.0353C42.6266 19.4173 43.1059 18.9408 43.1059 18.3529V16.2241C43.1059 15.6362 42.6266 15.1596 42.0353 15.1596H3.49409ZM43.1059 21.3645V43.8993C43.1059 44.4871 42.6266 44.9637 42.0353 44.9637C41.444 44.9637 40.9647 44.4871 40.9647 43.8993V40.706H34.5412V43.8993C34.5412 44.4871 34.0619 44.9637 33.4706 44.9637C32.8793 44.9637 32.4 44.4871 32.4 43.8993V40.706H13.1294V43.8993C13.1294 44.4871 12.6501 44.9637 12.0588 44.9637C11.4675 44.9637 10.9882 44.4871 10.9882 43.8993V40.706H4.56468V43.8993C4.56468 44.4871 4.08536 44.9637 3.49409 44.9637C2.90282 44.9637 2.4235 44.4871 2.4235 43.8993V21.3645C1.17605 20.9261 0.282318 19.7433 0.282318 18.3529V16.2241C0.282318 14.4604 1.72028 13.0308 3.49409 13.0308H42.0353C43.8091 13.0308 45.2471 14.4604 45.2471 16.2241V18.3529C45.2471 19.7433 44.3533 20.9261 43.1059 21.3645ZM40.9647 38.5771V21.5462H4.56468V38.5771H40.9647Z" fill="#008BDC"/>
</svg>
