<svg width="45" height="45" viewBox="0 0 45 45" fill="none" xmlns="http://www.w3.org/2000/svg">
<path d="M19.1837 42.1228H25.5065V31.0167H19.1837V42.1228ZM18.1299 28.9213H26.5603C27.1423 28.9213 27.6141 29.3903 27.6141 29.969V43.1705C27.6141 43.7492 27.1423 44.2183 26.5603 44.2183H18.1299C17.5479 44.2183 17.076 43.7492 17.076 43.1705V29.969C17.076 29.3903 17.5479 28.9213 18.1299 28.9213ZM11.807 27.426C12.389 27.426 12.8608 27.8951 12.8608 28.4738C12.8608 29.0524 12.389 29.5215 11.807 29.5215H7.59183C7.00983 29.5215 6.53802 29.0524 6.53802 28.4738C6.53802 27.8951 7.00983 27.426 7.59183 27.426H11.807ZM11.807 33.7125C12.389 33.7125 12.8608 34.1816 12.8608 34.7602C12.8608 35.3389 12.389 35.808 11.807 35.808H7.59183C7.00983 35.808 6.53802 35.3389 6.53802 34.7602C6.53802 34.1816 7.00983 33.7125 7.59183 33.7125H11.807ZM37.0983 27.426C37.6803 27.426 38.1521 27.8951 38.1521 28.4738C38.1521 29.0524 37.6803 29.5215 37.0983 29.5215H32.8831C32.3011 29.5215 31.8293 29.0524 31.8293 28.4738C31.8293 27.8951 32.3011 27.426 32.8831 27.426H37.0983ZM37.0983 33.7125C37.6803 33.7125 38.1521 34.1816 38.1521 34.7602C38.1521 35.3389 37.6803 35.808 37.0983 35.808H32.8831C32.3011 35.808 31.8293 35.3389 31.8293 34.7602C31.8293 34.1816 32.3011 33.7125 32.8831 33.7125H37.0983ZM22.3451 16.9486C19.4351 16.9486 17.076 14.6032 17.076 11.7099C17.076 8.81664 19.4351 6.47119 22.3451 6.47119C25.2551 6.47119 27.6141 8.81664 27.6141 11.7099C27.6141 14.6032 25.2551 16.9486 22.3451 16.9486ZM22.3451 14.8531C24.0911 14.8531 25.5065 13.4459 25.5065 11.7099C25.5065 9.97394 24.0911 8.56667 22.3451 8.56667C20.5991 8.56667 19.1837 9.97394 19.1837 11.7099C19.1837 13.4459 20.5991 14.8531 22.3451 14.8531Z" fill="#4A4747"/>
<path d="M31.8293 21.1398V6.1331L22.3451 2.36124L12.8608 6.1331V11.5525C12.8686 11.6039 12.8727 11.6566 12.8727 11.7102C12.8727 11.7638 12.8686 11.8164 12.8608 11.8679V21.1398H31.8293ZM31.8293 23.2353H12.8608V42.0946H31.8293V23.2353ZM0.303135 21.7678L4.50602 11.3211C4.66606 10.9233 5.05355 10.6624 5.48446 10.6624H10.7532V5.42375C10.7532 4.99532 11.0155 4.61006 11.4156 4.45095L21.9537 0.259996C22.2049 0.160079 22.4852 0.160079 22.7364 0.259996L33.2745 4.45095C33.6746 4.61006 33.9369 4.99532 33.9369 5.42375V10.6624H39.2062C39.6371 10.6624 40.0246 10.9233 40.1847 11.3211L44.3975 21.7927C44.4148 21.8348 44.4294 21.8784 44.4411 21.9231C44.4674 22.0222 44.4782 22.1225 44.475 22.2213V36.8559C44.475 40.9064 41.1723 44.19 37.0983 44.19H7.59178C3.51778 44.19 0.215149 40.9064 0.215149 36.8559V22.1875C0.215149 22.0383 0.246547 21.8963 0.303135 21.7678ZM2.82574 21.1398H10.7532V12.7579H6.19792L2.82574 21.1398ZM41.8649 21.1398L38.4928 12.7579H33.9369V21.1398H41.8649ZM33.9369 42.0946H37.0983C40.0083 42.0946 42.3674 39.7491 42.3674 36.8559V23.2353H33.9369V42.0946ZM10.7532 42.0946V23.2353H2.32276V36.8559C2.32276 39.7491 4.68178 42.0946 7.59178 42.0946H10.7532Z" fill="#008BDC"/>
</svg>
