<svg width="45" height="43" viewBox="0 0 45 43" fill="none" xmlns="http://www.w3.org/2000/svg">
<path d="M10.4255 19.4145C10.0104 19.0097 9.3437 19.0161 8.93649 19.4288C8.52929 19.8416 8.53573 20.5044 8.95089 20.9092L11.1085 23.0132C11.5227 23.4171 12.1873 23.4118 12.595 23.0015L16.755 18.8142C17.1637 18.4029 17.1596 17.7401 16.7458 17.3338C16.3321 16.9275 15.6654 16.9316 15.2568 17.3429L11.8341 20.7881L10.4255 19.4145Z" fill="#4A4747"/>
<path d="M10.4255 29.8832C10.0104 29.4783 9.3437 29.4847 8.93649 29.8975C8.52929 30.3103 8.53573 30.9731 8.95089 31.3779L11.1085 33.4821C11.5227 33.886 12.1873 33.8808 12.595 33.4704L16.755 29.2828C17.1637 28.8715 17.1596 28.2086 16.7458 27.8023C16.3321 27.396 15.6654 27.4001 15.2568 27.8115L11.8341 31.2568L10.4255 29.8832Z" fill="#4A4747"/>
<path d="M24.4282 21.219L34.9183 21.2293C35.4998 21.2299 35.9717 20.7616 35.9723 20.1834C35.9729 19.6051 35.5019 19.1359 34.9204 19.1354L24.4303 19.125C23.8488 19.1244 23.3769 19.5927 23.3763 20.171C23.3758 20.7492 23.8467 21.2184 24.4282 21.219Z" fill="#4A4747"/>
<path d="M24.4282 31.6878L34.9183 31.6982C35.4998 31.6987 35.9717 31.2305 35.9723 30.6524C35.9729 30.0743 35.5019 29.6052 34.9204 29.6046L24.4303 29.5942C23.8488 29.5937 23.3769 30.0619 23.3763 30.64C23.3758 31.2181 23.8467 31.6872 24.4282 31.6878Z" fill="#4A4747"/>
<path d="M10.7412 2.37475V1.32788C10.7412 0.749707 11.2126 0.281006 11.7941 0.281006C12.3756 0.281006 12.847 0.749707 12.847 1.32788V2.37475H31.7999V1.32788C31.7999 0.749707 32.2713 0.281006 32.8529 0.281006C33.4344 0.281006 33.9058 0.749707 33.9058 1.32788V2.37475H41.2764C43.0209 2.37475 44.4352 3.78085 44.4352 5.51537V32.7341C44.4352 37.9376 40.1924 42.1559 34.9587 42.1559H9.68823C4.45454 42.1559 0.211792 37.9376 0.211792 32.7341V5.51537C0.211792 3.78085 1.62604 2.37475 3.37061 2.37475H10.7412ZM10.7412 4.4685H3.37061C2.78908 4.4685 2.31767 4.9372 2.31767 5.51537V10.7497H42.3293V5.51537C42.3293 4.9372 41.8579 4.4685 41.2764 4.4685H33.9058V5.51537C33.9058 6.09354 33.4344 6.56224 32.8529 6.56224C32.2713 6.56224 31.7999 6.09354 31.7999 5.51537V4.4685H12.847V5.51537C12.847 6.09354 12.3756 6.56224 11.7941 6.56224C11.2126 6.56224 10.7412 6.09354 10.7412 5.51537V4.4685ZM2.31767 12.8435V32.7341C2.31767 36.7813 5.61758 40.0622 9.68823 40.0622H34.9587C39.0294 40.0622 42.3293 36.7813 42.3293 32.7341V12.8435H2.31767Z" fill="#008BDC"/>
</svg>
