<svg width="41" height="40" viewBox="0 0 41 40" fill="none" xmlns="http://www.w3.org/2000/svg">
<path d="M38.2833 9.94868V1.55297C38.2833 1.03777 38.7034 0.620117 39.2216 0.620117C39.7398 0.620117 40.1599 1.03777 40.1599 1.55297V33.2701C40.1599 36.8765 37.2193 39.8001 33.592 39.8001H7.3208C3.6935 39.8001 0.752991 36.8765 0.752991 33.2701V1.55297C0.752991 1.03777 1.17306 0.620117 1.69125 0.620117C2.20944 0.620117 2.62951 1.03777 2.62951 1.55297V9.94868H25.1553V11.8144H2.62951V19.2772H10.1356V21.143H2.62951V28.6058H23.2712V30.4715H2.62951V33.2701C2.62951 35.8461 4.72987 37.9344 7.3208 37.9344H33.592C36.183 37.9344 38.2833 35.8461 38.2833 33.2701V30.4715H27.0242V28.6058H38.2833V21.143H13.8886V19.2772H38.2833V11.8144H30.7773V9.94868H38.2833Z" fill="#008BDC"/>
<path d="M25.1477 24.8746C27.2205 24.8746 28.9008 26.5452 28.9008 28.606V30.4717C28.9008 32.5325 27.2205 34.2032 25.1477 34.2032C23.075 34.2032 21.3947 32.5325 21.3947 30.4717V28.606C21.3947 26.5452 23.075 24.8746 25.1477 24.8746ZM12.0121 15.5461C14.0849 15.5461 15.7652 17.2167 15.7652 19.2775V21.1432C15.7652 23.204 14.0849 24.8746 12.0121 24.8746C9.93938 24.8746 8.25909 23.204 8.25909 21.1432V19.2775C8.25909 17.2167 9.93938 15.5461 12.0121 15.5461ZM28.9008 6.21753C30.9735 6.21753 32.6538 7.88814 32.6538 9.94895V11.8147C32.6538 13.8755 30.9735 15.5461 28.9008 15.5461C26.828 15.5461 25.1477 13.8755 25.1477 11.8147V9.94895C25.1477 7.88814 26.828 6.21753 28.9008 6.21753ZM25.1477 26.7403C24.1114 26.7403 23.2712 27.5756 23.2712 28.606V30.4717C23.2712 31.5021 24.1114 32.3375 25.1477 32.3375C26.1841 32.3375 27.0243 31.5021 27.0243 30.4717V28.606C27.0243 27.5756 26.1841 26.7403 25.1477 26.7403ZM12.0121 17.4118C10.9758 17.4118 10.1356 18.2471 10.1356 19.2775V21.1432C10.1356 22.1736 10.9758 23.0089 12.0121 23.0089C13.0485 23.0089 13.8886 22.1736 13.8886 21.1432V19.2775C13.8886 18.2471 13.0485 17.4118 12.0121 17.4118ZM28.9008 8.08324C27.8644 8.08324 27.0243 8.91854 27.0243 9.94895V11.8147C27.0243 12.8451 27.8644 13.6804 28.9008 13.6804C29.9371 13.6804 30.7773 12.8451 30.7773 11.8147V9.94895C30.7773 8.91854 29.9371 8.08324 28.9008 8.08324Z" fill="#4A4747"/>
</svg>
