<svg width="43" height="45" viewBox="0 0 43 45" fill="none" xmlns="http://www.w3.org/2000/svg">
<path d="M27.9189 37.0881H32.1587C35.0857 37.0881 37.4586 34.7289 37.4586 31.8188V19.1793H39.5785V31.8188C39.5785 35.893 36.2565 39.1958 32.1587 39.1958H27.9189V43.4181C27.9189 44.0002 27.4443 44.472 26.8589 44.472H5.65957C5.07417 44.472 4.59961 44.0002 4.59961 43.4181V34.9872C4.59961 34.4052 5.07417 33.9334 5.65957 33.9334H26.8589C27.4443 33.9334 27.9189 34.4052 27.9189 34.9872V37.0881ZM25.7989 42.3643V36.0411H6.71954V42.3643H25.7989ZM16.2592 31.8256C7.47819 31.8256 0.359741 24.7482 0.359741 16.0177C0.359741 7.28718 7.47819 0.209717 16.2592 0.209717C25.0403 0.209717 32.1587 7.28718 32.1587 16.0177C32.1587 24.7482 25.0403 31.8256 16.2592 31.8256ZM16.2592 29.7179C23.8695 29.7179 30.0388 23.5841 30.0388 16.0177C30.0388 8.45125 23.8695 2.31745 16.2592 2.31745C8.64899 2.31745 2.47967 8.45125 2.47967 16.0177C2.47967 23.5841 8.64899 29.7179 16.2592 29.7179Z" fill="#008BDC"/>
<path d="M16.2593 19.1791C18.0155 19.1791 19.4392 17.7636 19.4392 16.0175C19.4392 14.2714 18.0155 12.856 16.2593 12.856C14.503 12.856 13.0793 14.2714 13.0793 16.0175C13.0793 17.7636 14.503 19.1791 16.2593 19.1791Z" fill="#4A4747"/>
<path d="M38.5186 21.2867C36.1769 21.2867 34.2787 19.3994 34.2787 17.0713C34.2787 14.7432 36.1769 12.856 38.5186 12.856C40.8602 12.856 42.7584 14.7432 42.7584 17.0713C42.7584 19.3994 40.8602 21.2867 38.5186 21.2867ZM38.5186 19.179C39.6894 19.179 40.6385 18.2353 40.6385 17.0713C40.6385 15.9073 39.6894 14.9636 38.5186 14.9636C37.3477 14.9636 36.3986 15.9073 36.3986 17.0713C36.3986 18.2353 37.3477 19.179 38.5186 19.179Z" fill="#4A4747"/>
</svg>
