<svg width="34" height="34" viewBox="0 0 34 34" fill="none" xmlns="http://www.w3.org/2000/svg">
<circle cx="17" cy="17" r="17" fill="white"/>
<path d="M20.6734 8H17.8652C15.0568 8 12.6404 10.0353 12.6404 13.9788C12.6404 16.3322 13.8159 18.1131 15.8405 19.0035L12.0526 25.6184C11.922 25.8092 12.0526 26 12.2485 26H14.0119C14.1425 26 14.2731 25.9364 14.3384 25.8092L17.7999 19.3216H19.0407V25.8092C19.0407 25.8728 19.1061 26 19.2367 26H20.8041C20.9347 26 21 25.9364 21 25.8092V8.25436C20.9347 8.06359 20.8694 8 20.6734 8ZM19.0407 17.7951H17.9958C13.4894 17.7951 13.8159 9.52654 17.7999 9.52654H19.1061V17.7951H19.0407Z" fill="#FF0000"/>
</svg>
